<?xml version="1.0" standalone="no"?>
<!DOCTYPE svg PUBLIC "-//W3C//DTD SVG 1.1//EN" "http://www.w3.org/Graphics/SVG/1.1/DTD/svg11.dtd" >
<svg xmlns="http://www.w3.org/2000/svg">
<metadata></metadata>
<defs>
<font id="teslaregular" horiz-adv-x="716" >
<font-face units-per-em="2048" ascent="1229" descent="-819" />
<missing-glyph horiz-adv-x="737" />
<glyph unicode="&#xfb01;" horiz-adv-x="1032" d="M-500 -627q7 2 11 17q2 12 12 12v43q16 49 801 913q32 4 45 25h-2q3 5 5 10t3 6q2 3 6.5 11.5t5.5 9.5q12 8 62.5 62t129 142t147 165.5t154.5 176t115 130.5q14 17 67 77t71.5 83.5t50 71.5t53.5 95q9 25 8 53t-10 31v-2q-4 3 -17.5 8t-15.5 5q-12 0 -29 -5t-44.5 -23 t-53.5 -45.5t-55.5 -78.5t-50.5 -117v-2q0 -3 -0.5 -15.5t0 -19t2 -16.5t7 -18t13.5 -15q17 -7 12 -19.5t-22 -6.5q-46 23 -51 28l-4 6v5q0 8 -8 12v43l2 4v72q-11 5 -11 20q0 17 17 43q5 12 12 41l33 27q71 75 180 147q15 9 35 19l12 6l16 8q17 0 23 2q3 0 9 1t9 1 q3 -3 8 -5t12.5 -4t10.5 -3l6 -2q8 -4 13 -4q4 -7 6 -9l12 -8q4 -2 6 -2q12 -15 12 -125q-2 -4 -6 -20q0 -15 4 -23l-10 4l-12 -24q-10 -17 -14 -35l-168 -217q0 -4 -4 -8l-2 -2t-1 -2q-16 -23 -18 -33l-41 -39q-3 -3 -9.5 -14t-10.5 -15q-419 -459 -506 -557 q-6 -5 -8.5 -32.5t4.5 -36.5q8 -6 21 -19.5t18 -17.5q21 -13 155 -27q6 0 8 -2q4 -6 25 -27q2 -2 12.5 -13t12.5 -13q0 -6 10 -19q12 -18 12 -20q0 -9 -6 -15q-2 0 -2 -12q-2 0 -4 -2l-2 -2q-140 -122 -144 -158q-6 -6 -6 -14q-2 -4 -10 -8l-10 -8h-25q-1 1 -2 3t-2 3 l-14 14q-8 3 11 32t57 80.5t59 86.5q8 19 -17.5 36t-46.5 15q-2 0 -50 4t-69 14l-47 23q-3 -7 -32 -59h2q-11 -10 -57.5 -70t-49.5 -70l2 2q-285 -358 -596 -714q-14 -4 -54.5 -38t-47.5 -44q-14 -5 -25 -13q-2 -4 -14 -10q-35 -20 -47 -20q-27 0 -51 32q-1 1 -2.5 3.5 t-2.5 3.5q0 1 -1.5 3.5t-3.5 5.5t-3 5v16zM-293 -473q11 -2 33.5 14.5t56.5 52t58 62.5t63 72q2 2 16 22q53 56 113 125q247 276 232 293q-16 15 -116 -88t-208 -227q-15 -15 -28.5 -30t-14.5 -16q-27 -25 -80 -96q-40 -50 -59 -69q-38 -44 -60 -77.5t-6 -37.5zM899 526 q0 -35 12 -47l21 -20q5 0 14 -6h15q47 21 47 28q9 18 12 23v41q4 0 4 2q2 4 12 14q-3 33 -22.5 49.5t-34.5 16.5q-1 0 -4 -2t-7 -4t-7 -3q-18 -18 -29 -18l-4 -4q-2 -2 -2 -6l-8 -6l-3 -4q-16 -31 -16 -54z" />
<glyph unicode="&#xfb03;" horiz-adv-x="2478" d="M-573 -870q0 6 15 23t30.5 31.5t17.5 12.5q20 14 80 66q18 13 80 63q18 18 24 21q160 147 813 700q9 6 13 10q12 12 18 15q13 14 41.5 46t40.5 46q4 8 4 14q0 15 -12 35q-10 17 -10 29q0 20 12 31.5t31 13.5q8 2 28 2q60 4 95 16q77 33 190 141q38 35 102 89 q125 104 181 165h-2q6 2 6 15q0 5 -5 9.5t-12 4.5q-2 0 -14 -6q-8 -4 -14 -4q1 0 -16.5 -9.5t-41 -22t-41.5 -21.5q-23 -13 -24 -13q-15 -5 -465 -235q-95 -48 -250 -127.5t-253 -129.5t-138 -69q-19 -10 -35.5 -16.5t-32.5 -11t-25.5 -1.5t-9.5 15q0 18 72 53q11 6 92 51 q98 48 213 109q571 292 664 346h-2q45 19 68 29t51.5 24.5t37.5 20t56 32.5h-2q31 14 83 43.5t105 61t101 61t80 49.5t34 21h21q16 2 34 20l15 15q8 8 16 12q95 68 119 68q14 0 14 -11q0 -25 -32 -61q-15 -15 -19 -21q-6 -6 -10 -14l-7 -11q-6 -10 -10 -15 q-94 -97 -253 -226q-41 -45 -113 -96q-41 -30 -117 -100q-14 -13 -24 -21q-9 -8 -44 -38t-57.5 -50t-50 -44.5t-40 -37t-9.5 -12.5q38 0 63 -2q109 -5 129 -2h17q5 0 11.5 0.5t11 1t5.5 0.5q31 4 96.5 51.5t116.5 93t138 125.5q118 110 157 141q28 23 101.5 91.5t99.5 97.5 q9 9 58.5 50.5t60.5 49.5t20 17q1 1 3 2.5t7.5 5t12.5 8.5h6q14 0 16 -2q4 -4 2 -6q0 -1 -1 -4t-1 -4q-10 -25 -82 -105q-172 -172 -313 -305q-245 -235 -293 -283q-5 -5 2.5 -10.5t18.5 -7.5q17 -2 35 -2h61q6 0 15 1t10 1l28 -1q29 -1 51 -1h82q22 0 139.5 -14.5 t141.5 -20.5q21 -4 33 -12q10 -6 24 -10l13 -5q4 -2 14 -2q41 -11 96 -59q23 -17 23 -45q0 -21 -13 -47q-14 -23 -18 -41q-8 -23 -35 -37q-3 -1 -22 -14q-49 -39 -62 -39t-20.5 12.5t-7.5 30.5q0 22 71 84l2 12q0 25 -37 55t-59 37q-70 24 -198.5 39t-284.5 10 q-189 -8 -230 -20q-12 -9 -104 -91.5t-195 -175.5t-110 -100q-89 -79 -271.5 -260.5t-328.5 -349.5l-54 -55q-3 -4 -9 -11.5t-9 -11.5q-12 -18 -29 -35l-18 -12q-23 -17 -31 -29l-14 -28q-8 -17 -12.5 -24.5t-14 -15t-22.5 -7.5q-45 0 -45 41q0 17 21.5 54.5t37.5 55.5 l113 113q8 12 12 16q54 70 173.5 190t204 198.5t251.5 230.5q253 229 335 313l-227 -6q-4 -4 -8 -4q-90 -52 -117 -58q-27 0 -33 -6t-30 -34q-5 -5 -15.5 -16t-18.5 -20t-9 -10q-6 -6 -15 -6l-18 -12q-3 -3 -33 -27q-30 -25 -35 -30q-15 -19 -204 -174q-329 -270 -363 -330 q-13 -10 -94 -82q-15 -13 -42.5 -38.5t-45.5 -41t-29 -20.5q-24 -17 -86 -72q-91 -91 -129 -111l-45 -45q-35 -35 -61 -35q-45 0 -45 50zM2447 537q0 17 9 37t17 30.5t26 32.5l18 25q1 1 3 4t3 4q14 20 21 28.5t22 17.5t33 9t27.5 -1t19.5 -7t10 -19q0 -22 -28 -36l-25 -15 l-35 -35q-4 -6 -4 -24q0 -21 10 -41q13 -26 13 -41t-15 -24.5t-31 -12t-32 -2.5q-27 0 -44.5 21.5t-17.5 48.5z" />
<glyph horiz-adv-x="2048" />
<glyph horiz-adv-x="2048" />
<glyph unicode="&#xd;" horiz-adv-x="2048" />
<glyph unicode=" "  horiz-adv-x="737" />
<glyph unicode="&#x09;" horiz-adv-x="737" />
<glyph unicode="&#xa0;" horiz-adv-x="737" />
<glyph unicode="!" horiz-adv-x="778" d="M141 6q7 15 9 23q4 8 4 16q0 19 27 46.5t46 27.5q13 0 34.5 -17t21.5 -30q0 -34 -30 -65.5t-63 -31.5q-15 0 -32 8t-17 23zM459 457q-2 29 39 96q94 184 260 416v-2q1 2 5 9t5 9q1 1 7 9t8 10.5t7.5 8.5t10.5 10t12 7q21 14 43 14q21 0 31 -17.5t10 -39.5 q0 -9 -22.5 -48.5t-34.5 -57.5q-43 -60 -171 -228t-151 -188q-13 -10 -41 -10q-14 0 -18 2z" />
<glyph unicode="&#x22;" horiz-adv-x="581" d="M122.5 868q2.5 10 3.5 13.5t6 15t7 18.5q4 12 15.5 37t15.5 39l13 39t17 61.5t1 36.5q0 9 -6 9l-15 12q-5 16 16.5 33t41.5 24q22 7 44.5 -6.5t30.5 -34.5q1 -15 1.5 -23t-6 -30.5t-10 -33.5t-11 -31t-8.5 -23q-6 -15 -19 -41q-27 -83 -57 -113q-14 -22 -31 -34 q-32 -10 -49 20q-3 2 -0.5 12zM314 832q3 16 7 25t12.5 26.5t12.5 31.5q1 2 7 20t8.5 27t8 29t5.5 27v20q-2 8 -2 19q-2 7 6 20q2 0 10 23q4 9 5.5 38t4.5 38q0 1 3.5 3t8.5 5t7 4q26 21 39 24q10 4 27 -3.5t20 -18.5q8 -20 8 -37q7 -19 -8 -63q-2 -8 -8 -27v2 q-6 -27 -17 -49q-11 -17 -14 -31q-3 -9 -4 -12.5t-2 -5.5t-1.5 -2.5t-2 -1.5t-4.5 -4.5t-7 -10.5q-10 -25 -16 -35q-4 -7 -7 -15t-5 -13q-29 -56 -41 -72q-16 -21 -27 -25q-9 -4 -18 2.5t-13 14.5q-6 11 -3 27z" />
<glyph unicode="#" horiz-adv-x="811" d="M29 272q0 13 21.5 20.5t55.5 4.5q7 -1 22 -4t22 -4q13 -3 43 -8.5t45 -8.5q2 -2 6 -2q6 6 6 11q2 3 5 8t5 8q28 49 37 59q-8 1 -44.5 5t-53.5 6q-34 9 -55 21.5t-19 21.5q0 34 127 14q1 0 6.5 -1t7.5 -1q4 -2 17 -2q10 0 22 -4q6 -2 14 -2q3 0 6 -1t5 -1q1 2 8.5 13.5 t11.5 18.5q4 8 19 33q6 9 24 39q3 8 25 35q0 6 4 12q34 43 37 47q0 13 16 13q5 0 20.5 -11t16.5 -18q2 -6 2 -25t-2 -22q-26 -26 -47 -29q-4 -4 -4 -10q-11 -22 -29 -49q-2 -2 -6 -10q-24 -44 -27 -50h13q3 0 10.5 -1t11.5 -1q12 -1 44 -5.5t52 -6.5q3 4 10 14.5t13.5 19 t11.5 15.5q22 37 23 39v-2q0 2 6 8q1 1 2 4t2 4h-2l6 7h-2l10 10h-2q1 2 5 7t5 7q15 18 27 43q11 17 25 17q8 0 23 -10.5t16 -18.5q2 -11 -2 -19q-1 -1 -7.5 -8t-7.5 -8t-2 -3t-2 -3q-2 -2 -2 -6l-5 -8q-5 -8 -9 -11h2q-24 -34 -33 -41l-6 -12q-1 -2 -3 -7t-3 -7l-6 -13 q-1 -2 -3.5 -5t-3.5 -5l-12 -16q148 -21 152 -25l18 -20q-1 -11 -22 -17t-45 -4q-27 0 -37 2q-49 3 -90 9q-1 -1 -9 -17q0 1 -1.5 -1t-4 -6.5t-3.5 -7t-3 -5.5q-12 -24 -14 -27q-4 -7 -11.5 -18.5t-11.5 -18.5q92 -13 183 -18h14q27 0 35 -15v-4q-5 -24 -86 -24 q-63 0 -181 12q-23 -38 -36 -53q-8 -10 -23 -35q-3 -4 -10 -15.5t-10 -15.5q-3 -5 -15 -22.5t-18 -26.5q-14 -19 -50 -48.5t-59 -29.5q-9 0 -16 13l-4 14v-2q-1 2 -4 5t-4 5l-7 12q-9 27 11 27q34 0 71 37q11 6 34 36.5t30 49.5q10 10 37 55h-6q-13 0 -17 2h2q-10 2 -30 5.5 t-27 4.5q-23 5 -53 7q-31 -49 -80 -105l-19 -18q-3 -3 -8 -10.5t-8 -10.5h2q-1 -1 -9 -9.5t-16 -16.5l-18 -19h2q-37 -37 -53 -37q-12 0 -27.5 26.5t-17.5 39.5q-2 12 3 19t12.5 9t21.5 3q34 11 38 14q1 1 8 6.5t9 7.5l12 13q1 1 2 3t2 3h-2q1 1 -2 -1l15 15l1 1l1 1l2 2h-2 v1q-2 2 13 17l3 3h-2q2 2 17.5 20.5t23.5 32.5q-181 28 -178 65zM317 254q16 -4 25 -4q2 0 7.5 -1t8.5 -1q13 -2 37 -6l49 -6q0 1 1.5 2l3 2t2.5 2h-2q12 24 24 45q18 36 23 45q-59 6 -111 14h-12q-2 0 -4.5 1t-3.5 1q-3 -5 -8.5 -14.5t-6.5 -11.5q-12 -17 -20 -41 q-3 -3 -11 -23z" />
<glyph unicode="$" horiz-adv-x="694" d="M86 176q0 45 39 45q20 -25 20 -41v-10q0 -63 82 -121q11 24 29.5 62.5t27 56t25 49.5t37.5 68t51 86q-28 47 -28 92q0 47 15 80t41 49.5t52.5 23.5t57.5 7q14 -1 20 -2h2q43 67 74 67q13 0 16 -14l-43 -74q23 -13 43 -39q5 8 14.5 24.5t16 26.5t15 21.5t18 17.5t18.5 6 q16 0 19 -10q-12 -24 -37.5 -72.5t-36.5 -70.5q20 -55 20 -135q-3 -21 -18 -21t-19 8l-8 11q-3 8 -7.5 29.5t-6.5 29.5q-8 -16 -36.5 -70.5t-47.5 -89.5q35 -68 35 -135q0 -78 -54.5 -127.5t-144.5 -58.5l-37 -76q-8 -8 -22 -8q-23 0 -23 16l19 45l6 23q-52 4 -88 16 q-3 -8 -9 -24.5t-9 -23t-8.5 -15.5t-12 -12t-15.5 -3q-18 0 -18 25q0 6 3 16t6.5 18.5t9 22t8.5 19.5q-111 59 -111 192zM274 25q49 -18 84 -23q14 29 57 116t70 140q-9 13 -28.5 36t-24.5 30q-42 -70 -98 -183q-2 -4 -24.5 -46t-35.5 -70zM420 8q106 25 106 135q0 20 -8 56 zM430 469q0 -16 6 -31q75 119 80 127q-48 0 -67 -29.5t-19 -66.5zM469 383q4 -5 22 -26.5t27 -34.5q89 169 94 178q-16 32 -39 49z" />
<glyph unicode="%" horiz-adv-x="1087" d="M-195 -350q0 22 7 32.5t26 10.5q19 42 209.5 179t245.5 167q553 312 829 475h-6q-8 0 -39 -1t-83 -1t-130 2q-12 0 -26 -39.5t-29 -42.5q-8 -6 -22 -9.5t-23.5 -3.5t-27 0.5t-19.5 0.5q-1 -4 -33 -8t-41 -4q-34 0 -64 15t-30 48q0 4 7 19t7 32q16 25 79.5 81.5 t102.5 78.5q12 -2 46 10.5t51 7.5q18 -13 23 -28q9 -28 -1 -90q-6 -9 -6 -19q0 -4 26.5 -9t35.5 -5l219 10h24q12 8 56 27.5t59 36.5h41q7 0 10 -7v-12q0 -19 -18 -59q-6 -8 -22 -11t-21 -6q-2 -2 -13.5 -9.5t-20 -13.5t-9.5 -9l-4 -13q-5 -10 -19.5 -10.5t-21.5 -5.5 q-78 -58 -269 -166t-366.5 -203t-326 -191.5t-173.5 -142.5q-1 -2 1.5 -4.5t5.5 -3.5l3 -2q22 5 38 10t21.5 7t6.5 2q242 81 481 202q11 5 33.5 22t34.5 21q14 7 82 31t71 21h11q4 -2 6.5 -4.5t4.5 -8.5t5 -10l2 -10l2 -45q0 -9 -10.5 -31.5t-18.5 -30.5q0 -1 -8.5 -8.5 t-9.5 -9.5q-15 -25 -35 -48.5t-49 -46t-57 -25t-58 14.5q-8 6 -26.5 29t-18.5 31q0 12 4 20l-51 -22q-4 0 -28.5 -11.5t-119 -51t-235.5 -91.5q-3 -5 -69 -25t-70 -30q-5 -1 -15 -6.5t-14 -5.5h-2h-8.5t-9 0.5t-7 3t-1.5 6.5q-4 -4 -30.5 -11.5t-33.5 -7.5h-4l-10 3h-43 q-11 0 -11 12zM659 -84q0 -16 31 -16q18 0 42 31t24 49l-6 12q-3 -1 -52 -25q-39 -33 -39 -51zM676 518q0 -12 0.5 -17t6 -10.5t17.5 -5.5q9 0 17.5 1.5t16.5 5.5l13 6.5t13 10t11 10.5t12.5 13.5t11.5 12.5t6 5t6 5.5t2 7.5q0 68 -14 68q-31 0 -75 -40t-44 -73zM1300 565 q5 0 5 4t-5 -1q-2 -3 0 -3z" />
<glyph unicode="&#x26;" horiz-adv-x="1355" d="M344 362q0 75 72 140t147 65q64 0 87 -17.5t46 -76.5q1 -2 5.5 -8t5.5 -8l6 -21q0 -29 -4 -39q3 -40 0 -53q0 -2 -1 -12t-1 -17q0 -2 -1 -8.5t-2 -17.5t-2 -19q-2 -10 -2 -24q2 2 23 16q2 1 4.5 6.5t3.5 7.5t4 7.5t4 7.5q4 2 8.5 7.5t11 18t10.5 20.5t12.5 26.5 t11.5 25.5q16 40 28.5 66.5t29.5 58t32.5 48t29.5 16.5q11 0 18 -6.5t7 -14.5q0 -23 -18 -55q-1 -2 -4.5 -5.5t-5 -6t-1.5 -5.5q-3 -9 -10 -22.5t-19.5 -34t-19.5 -33.5q-66 -111 -69 -143q8 0 28 4q28 4 35 4q51 3 188 57q56 23 88 31q2 0 4.5 1t4.5 1q12 4 20 4h27 q10 0 10 -22q0 -26 -40.5 -43t-76.5 -23q-10 -4 -30.5 -11t-30.5 -11q-65 -25 -113 -35q-28 -7 -90 -16q-64 -9 -73 -18q-2 -2 -3 -5q-6 -11 -26 -46t-36 -62.5t-30 -47.5q-9 -12 -14 -22q-5 -11 -8.5 -15.5t-14 -9t-26.5 -4.5q-8 0 -11.5 0.5t-8 5t-7.5 13.5l6 22 q0 2 12 14h-2q52 75 52 117q4 31 4 35q-6 3 -62 12q-134 20 -178 74q-26 34 -35.5 54.5t-9.5 51.5zM412 387q0 -46 18 -76.5t50 -44t61.5 -18t68.5 -4.5l23 6v-2q1 1 4 5t4 5l-2 -2v47q0 119 -61 180q-7 0 -13 6q-9 0 -12 3q-12 4 -18 4q-50 0 -86.5 -29.5t-36.5 -79.5z" />
<glyph unicode="'" horiz-adv-x="421" d="M122.5 868q2.5 10 3.5 13.5t6 15t7 18.5q4 12 15.5 37t15.5 39l13 39t17 61.5t1 36.5q0 9 -6 9l-15 12q-5 16 16.5 33t41.5 24q22 7 44.5 -6.5t30.5 -34.5q1 -15 1.5 -23t-6 -30.5t-10 -33.5t-11 -31t-8.5 -23q-6 -15 -19 -41q-27 -83 -57 -113q-14 -22 -31 -34 q-32 -10 -49 20q-3 2 -0.5 12z" />
<glyph unicode="(" horiz-adv-x="737" d="M-12 -328q0 59 9 114t19 87.5t35 108.5q104 269 346 552.5t492 421.5q92 43 155 43q36 0 72.5 -15.5t36.5 -47.5q0 -18 -23 -18q-12 0 -32 12q-1 0 -3 1t-3 1q-24 8 -45 8q-60 0 -132 -45q-278 -165 -454 -364t-311 -494q-49 -100 -64 -199q-4 -21 -8 -59q-5 -38 -15 -90 q-15 -76 -47 -76q-28 0 -28 59z" />
<glyph unicode=")" horiz-adv-x="954" d="M-231 -461q0 15 22 33q15 9 64 29q127 63 186 102q278 194 463 387q12 12 24 27q280 290 340 442q41 126 41 174q0 17 -12 53t-12 58t18 22q31 0 51.5 -53.5t20.5 -89.5q0 -70 -32.5 -153.5t-86 -162.5t-106 -143t-107.5 -121q-107 -112 -173.5 -178.5t-169 -155.5 t-196.5 -151q-58 -39 -158.5 -96.5t-129.5 -57.5q-17 0 -32 8t-15 27z" />
<glyph unicode="*" horiz-adv-x="731" d="M168 682q0 21 94 86q68 49 68 55q0 4 -33 29q-41 29 -41 43q0 10 14.5 20.5t24.5 10.5q5 0 12 -4t17.5 -13t17.5 -14q35 -31 45 -31q4 0 33.5 24.5t32.5 29.5q3 3 8 9t8 9q35 39 63 39q11 0 20 -6t9 -17q0 -10 -4 -14q-28 -37 -47 -51q-9 -9 -21 -17t-32 -28 q7 -15 10 -15q16 -8 29 -8h24h9q82 0 83 -18q0 -17 -25.5 -31t-43.5 -14q-7 0 -27 4q-12 4 -18 4q-8 0 -25 2t-24 2q-40 8 -66 8q-12 0 -18 -8q-5 -5 -41 -29q-67 -41 -80 -69q-8 -15 -27 -15q-13 0 -31 7.5t-18 19.5z" />
<glyph unicode="+" horiz-adv-x="743" d="M86 256q0 19 39 45q26 0 84 -4q27 -2 84 -2h123q10 10 12 14q119 148 176 148q8 0 8 -17q0 -4 -1 -11.5t-1 -10.5v-21q-36 -45 -65 -80q-27 -31 -35 -41l33 -6q106 -18 139 -18q24 0 45 -6l2 -2q0 -21 -2 -31t-11.5 -17.5t-29.5 -7.5q-8 0 -65 5q-46 4 -66 4l-49 6 q-24 6 -49 6q-5 0 -36.5 -32.5t-41.5 -45.5q-24 -30 -60 -63q-18 -18 -18 -33q0 -4 10 -29v2q11 -18 11 -33q0 -12 -25.5 -17t-44.5 -5q-10 0 -43 10t-33 17q0 45 168 213l14 14q-12 12 -28 12q-59 16 -137 19q-81 6 -84 6q-23 0 -23 12z" />
<glyph unicode="," horiz-adv-x="409" d="M0 -219q0 6 4 14q0 1 1 3t1 3q10 24 29 39q42 32 164 201l6 10q12 6 31 6q20 0 43.5 -10t23.5 -29q0 -16 -24 -32q-1 -1 -4.5 -3t-4.5 -3q-10 -11 -37 -60v-2q-18 -38 -98 -94.5t-119 -56.5q-16 0 -16 14z" />
<glyph unicode="-" horiz-adv-x="569" d="M94 266q0 11 9.5 21.5t19.5 13.5q9 6 29 6q19 0 55 -1t53 -1h105q3 0 9 1t9 1h12q19 0 35 -11t16 -30q0 -9 -0.5 -14t-3 -8.5t-4.5 -5t-8 -5.5l-16 -8h2q-4 -4 -10 -4q-12 0 -15 6q-1 1 -5 3l-3 3q-18 9 -104 9q-11 0 -23 -4q-8 -2 -20 -2q-52 0 -70 2q-8 0 -12 4h2 q-8 4 -13 4q-4 0 -12 -8q-9 -9 -14 -9q-11 0 -17 13t-6 24z" />
<glyph unicode="." horiz-adv-x="475" d="M162 49q0 35 10.5 46t46.5 11q18 0 37 -3t38 -14.5t19 -29.5q0 -16 -12 -32q8 -12 8 -27q0 -27 -35 -27q-11 0 -47 9q-4 1 -11 2t-11 2q-25 9 -34 23t-9 40z" />
<glyph unicode="/" horiz-adv-x="804" d="M-133 -346q-6 32 18 53l37 37q5 4 11.5 10.5t14 14.5t11.5 12l66 74q8 9 57.5 62t73.5 81q338 389 725 805q82 95 129 170q14 -11 18 -29q7 -46 -135 -229q-14 -17 -117 -125q-147 -152 -192 -213q-8 -13 -45 -55q-4 -4 -12.5 -13.5t-12.5 -13.5q-15 -17 -48.5 -54 t-49.5 -55q-45 -48 -97 -106q-78 -85 -126 -148q-31 -42 -125 -141q-42 -42 -50 -49q-19 -19 -64 -55t-56 -37q-2 0 -5.5 -1t-5.5 -1q-17 -4 -20 6z" />
<glyph unicode="0" d="M182 27q-4 39 39 133t108 186.5t115 120.5l25 -16l98 26q8 0 45 -31q2 -2 25 -20v2l2 -8q41 -41 41 -58q0 -18 -52 -111.5t-75 -127.5q0 -4 -31 -8q-25 -8 -41 -19h2q-20 -12 -26 -18l-8 -8q-11 -11 -23 -19q-4 -4 -6 -4q-94 -76 -182 -76q-28 0 -40.5 13t-15.5 43z M258 100q0 -26 29 -26q24 0 67.5 21t71.5 42q2 2 7.5 7t6.5 6q164 142 164 208q0 17 -11 32.5t-30 15.5q-39 0 -139 -62q-4 -4 -6 -4l-12 -6l-9 -8l-12 -4q-3 -3 -8 -3q-40 -40 -79.5 -112.5t-39.5 -106.5z" />
<glyph unicode="1" horiz-adv-x="610" d="M160 12q0 23 15.5 52.5t35.5 50.5q89 82 143 153q5 5 15.5 16.5t15.5 16.5q3 3 8 9t8 9l48 56q14 13 26.5 27.5t18.5 23.5l6 8q9 18 10 19l8 8h19q1 0 6 1t10 1q17 0 23 -6t6 -21q0 -30 -15 -57q-39 -51 -88 -96q-18 -21 -94.5 -106t-108.5 -122q-4 -4 -12.5 -13.5 t-11.5 -12.5q-5 -5 -10 -29q-6 -29 -9 -29q-2 -1 -6 -2.5t-6.5 -2.5t-3.5 -1q-12 0 -34.5 17t-22.5 30z" />
<glyph unicode="2" d="M162 57q0 16 8 29q28 23 88 57l2 2q39 20 53.5 28t49.5 27.5t51 32t37 30t29.5 33.5t8.5 32q0 37 -40 37q-29 0 -84 -19h2q-2 -2 -11 -2q-1 0 -4 -1t-4 -1q-15 18 -12 35q5 33 80 47h43q62 0 82 -23t20 -88q0 -64 -194 -194q-16 -11 -27 -15q-2 -1 -7 -4t-7 -4h2l-17 -8 l-6 -4h2l-14 -14q27 0 79 -2t77 -2q89 0 108 8h-2l10 10q2 2 19 2q10 0 19 -6t9 -17q0 -27 -18 -49q-12 -15 -88.5 -24t-136 -11t-105.5 -2q-53 0 -77.5 15.5t-24.5 64.5z" />
<glyph unicode="3" d="M127 0q0 22 18.5 31.5t40.5 9.5q10 0 13 -23q8 -57 49 -57q50 0 123 74.5t73 126.5q0 10 -16 22q-1 1 -3 2t-3 2h2q-29 12 -29 52q0 10 3.5 17t7.5 10.5t13 5.5t15 2t18 -0.5t17 -0.5h12q31 0 45 2q47 11 82 54.5t35 95.5q0 43 -22 43q-15 0 -35 -8q-15 -6 -27 -6 q-27 0 -36 10.5t-9 38.5v14q2 17 70 17q38 0 65 -3q26 -3 57 -36t31 -58q0 -76 -62.5 -136t-142.5 -83q-4 -2 -4 -8q11 -22 11 -31q0 -40 -25.5 -82.5t-66 -78.5t-82.5 -64t-84 -49l-11 -4q-2 -1 -6 -2t-6 -2t-5 -2t-5 -2q-61 -27 -74 -27q-47 0 -47 133z" />
<glyph unicode="4" d="M283 238q0 61 61 118q14 11 31 33q88 88 121 103q39 -8 39 -29q0 -12 -25 -41l-4 -4l-6 -6q-2 -2 -7.5 -6.5t-7.5 -6.5l-12 -12q-2 -2 -18 -14q-88 -76 -88 -115q0 -32 43 -39q41 -3 79 10l7 2q9 2 63 45q18 18 31 23q4 2 8 6l8 8q11 11 19 15l4 4q4 4 6 4q2 2 8 4h-2 q16 16 29 16q16 1 33.5 -14t17.5 -25q0 -7 -25 -24q-3 -2 -8 -7t-8 -7v-3q-1 -1 -4 -3t-4 -3l-51 -34q-136 -115 -189 -187v2q-1 -2 -6 -8t-6 -8q-7 -7 -17.5 -20.5t-20 -23t-20.5 -14.5q-4 -2 -14 -2q-14 0 -27.5 7.5t-13.5 25.5q4 31 25 49q5 4 71 70q7 7 25 31l-14 -4 q-16 -4 -19 -4q-1 0 -1.5 -1t-2 -1.5t-4.5 -0.5q-27 -7 -76 7q-18 18 -23 33.5t-5 50.5z" />
<glyph unicode="5" d="M102 4q0 27 12 51t38 27q20 -15 32 -53l2 -6q4 -18 7.5 -28t15 -19.5t29.5 -10.5q65 -1 125.5 72t60.5 135q0 22 -11.5 44.5t-33.5 35.5q-8 8 -8 41q20 21 64 68.5t79 85.5l35 38q2 4 2 15q0 12 -4 20q0 22 16 25q4 -2 19 -2h18q1 0 4 1t4 1q10 2 33 2q10 0 16 -6 q0 -1 5 -6l4 -7q4 -10 14 -12q13 -13 31 -20q6 -3 10 -7q2 0 10 -4q92 -38 92 -69q0 -10 -16.5 -15.5t-28.5 -5.5t-22.5 0.5t-18.5 1t-16.5 2t-12.5 2.5t-12 3.5t-11 3t-11.5 4t-11.5 4.5t-29.5 17t-40.5 20q-49 -66 -60 -74l-32 -33q-8 -9 -15.5 -17t-10.5 -11.5t-5 -6.5v2 q-4 -8 -8 -12l-8 -8q45 -93 45 -143q0 -95 -85.5 -179t-179.5 -84l-12 4q-6 3 -10 3q-15 0 -21 4h3l-19 6q-17 6 -44.5 43.5t-27.5 56.5z" />
<glyph unicode="6" d="M209 92q-3 85 49 168q104 148 293 311.5t354 245.5q47 21 68 21q9 1 19 0t20 -7.5t10 -17.5q1 -20 -24 -30.5t-60 -14.5h-6l-12 -4q-74 -34 -179.5 -113t-204 -173t-167 -194t-64.5 -167q2 -29 19 -49t45 -19q36 2 88 36.5t91.5 82.5t37.5 84q0 13 -10 24t-23 11 q-27 -2 -51.5 -15.5t-37.5 -26.5t-32 -36q-33 -49 -65 -49q-8 -1 -12.5 6.5t-4.5 15.5q-3 41 44 81t102 61.5t90 23.5q89 3 94 -72q3 -59 -56.5 -127.5t-139.5 -114t-140 -48.5q-129 -7 -135 106z" />
<glyph unicode="7" d="M-183 -560.5q0 2.5 0.5 9t0.5 10.5q0 42 28 78q17 23 43 45q4 8 13 17l39 39q37 35 116 106q12 8 29 25q5 4 14.5 12t14.5 12l22 23q195 183 412 424q15 13 31 41.5t16 44.5q0 3 -2 6t-7.5 5t-9.5 3t-12.5 3t-13.5 3q-1 0 -5 1t-5 1q-4 2 -13 2q-2 0 -6 1t-6 1 q-25 5 -57 13q-12 4 -53 4q-26 1 -42 3t-38.5 8t-33.5 19.5t-11 34.5q0 22 55 43q34 -7 67 -20q3 -1 10.5 -3t10.5 -3l10 -5q35 -13 101 -20q4 -2 12 -2q2 0 7 -1t7 -1q89 -12 133 -29q34 -20 40 -34q3 -7 3 -15q0 -19 -12 -39v2q-4 -9 -20 -27.5t-32 -34t-42.5 -41.5 t-36.5 -36l-31 -31q-45 -45 -139 -135l-55 -55q-12 -10 -35 -33q-12 -10 -33 -31l-35 -35q-8 -6 -22 -20q-14 -13 -39.5 -36t-38.5 -36q-80 -71 -158 -149q-13 -13 -18 -17l-19 -18q-60 -60 -71 -80q-26 -59 -72 -59q-6 0 -8.5 2t-2.5 4.5z" />
<glyph unicode="8" d="M61 25q0 46 44 101.5t97.5 94.5t98.5 58q16 7 29 18l32 22v-2q9 26 19 97v8q0 2 1 5.5t1 4.5q1 3 2 10t2 11q13 82 29 116q46 96 134 154.5t191 58.5q86 0 194 -39t175 -92q8 -8 8 -24q0 -18 -18 -27.5t-37 -11.5q-20 14 -41 35q-114 108 -264 108q-79 0 -135.5 -28 t-90.5 -82.5t-52.5 -119t-28.5 -153.5q26 10 55 17q29 4 37 8q6 0 8 2q2 0 10 4q5 2 15.5 5t15.5 5q150 55 207 86q6 3 18 12q6 6 8 7h-2q3 3 15 6h-2q33 22 63 22q19 0 19 -18q0 -19 -38.5 -46t-101.5 -55t-118.5 -49t-112.5 -41q-15 -5 -17 -6q-30 -13 -41 -16l-8 -4 q-1 -1 -3.5 -2.5t-4.5 -3.5t-6 -2q-5 -5 -12 -7h2q-2 -2 -8 -2q-19 -84 -61.5 -171.5t-92.5 -108.5q-3 -1 -15.5 -5t-21 -8t-14.5 -10q-7 -2 -17 -8h2q-29 -18 -57 -16q-52 2 -81.5 19.5t-29.5 62.5zM145 29q0 -7 6.5 -12t14.5 -5q51 0 106.5 62.5t75.5 146.5q0 8 -6 8h-2 q-89 -41 -147 -108q-48 -60 -48 -92z" />
<glyph unicode="9" d="M-221 -506q0 14 9.5 25t30.5 25l21 14l2 -2q1 1 3 4t3 4q2 2 7.5 6t7.5 6q15 11 45 37q24 18 29 22q457 343 491 439q-41 0 -57 -4t-27 -4q-21 0 -41.5 4t-39.5 17t-19 34q0 61 81.5 136t180.5 124t156 49q32 0 42.5 -14.5t10.5 -50.5q0 -103 -103 -222q-31 -31 -41 -39 q-1 -1 -4 -3t-4 -3q-41 -27 -69 -65q-54 -69 -155 -159t-187 -153l-123 -92q-24 -21 -47 -37q-2 -1 -9.5 -5t-9.5 -5h2q-6 -5 -15.5 -11.5t-12.5 -8.5q-18 -12 -29 -23l-4 -4q-2 -1 -9.5 -5t-9.5 -5h2q-60 -55 -90 -55q-18 0 -18 24zM348 168q0 -8 18 -13t27 -5 q46 0 96 22.5t89 58.5q19 16 45 57.5t26 59.5q0 19 -28 19q-27 0 -93 -36.5t-123 -85.5t-57 -77z" />
<glyph unicode=":" horiz-adv-x="886" d="M291 106q0 24 26.5 38t51.5 14q21 0 32 -17.5t11 -38.5q0 -12 -7.5 -24.5t-17.5 -16.5q-2 -22 -12.5 -37.5t-30.5 -15.5q-22 0 -22 25q0 6 6 18q0 1 -11 12l-7 7q-8 7 -10 10t-5.5 10.5t-3.5 15.5zM479 313q0 19 32.5 26t61.5 7q27 0 27 -27q0 -23 -12 -47.5t-33 -27.5 q-1 0 -1.5 -0.5t-2 -1t-4.5 -0.5q-21 0 -40.5 11t-19.5 28q-1 1 -6 16q-2 4 -2 16z" />
<glyph unicode=";" horiz-adv-x="630" d="M18 -221q0 28 51.5 77t98.5 85q15 11 43 57q27 44 41 49q16 8 29 8q12 0 27.5 -10t15.5 -22q0 -17 -19 -31q-8 -4 -14 -10q-19 -19 -39 -64q-9 -18 -15.5 -25.5t-19.5 -13.5q-1 -1 -3.5 -2.5t-4.5 -3.5q-26 -15 -41 -37q-19 -23 -37 -33h2q-59 -41 -98 -41q-17 0 -17 17z M401 227v9q0 14 1 20.5t8.5 12t23.5 5.5q22 0 49 -9t27 -27q0 -17 -12 -29q10 -10 10 -27q0 -14 -23 -14q-13 0 -41 8q-2 1 -7 2t-7 2q-29 9 -29 47z" />
<glyph unicode="&#x3c;" horiz-adv-x="694" d="M164 303q0 17 18 35q5 5 17.5 13t32 19.5t37 21.5t42.5 24t39 22q27 15 39 21l25 16q21 17 47 17q43 0 43 -41q0 -9 -12 -21q-1 -1 -3.5 -4t-3.5 -4q-9 -11 -28 -14q-9 0 -15 -2q-24 -7 -104 -60q-1 -1 -8 -4.5t-17.5 -9.5l-17.5 -10q-4 0 -7.5 -2.5t-8.5 -6.5t-9 -6 q4 -5 15.5 -16.5t15.5 -16.5q95 -95 121 -116q27 -20 35 -45q2 -6 2 -17q0 -15 -11 -26t-26 -11l-21 7l-4 4q-18 9 -24 24l-6 12q-2 4 -15 17q-2 2 -4.5 5.5t-3.5 4.5q-3 3 -15 14t-20 19q-96 91 -106 102q-14 2 -26.5 11.5t-12.5 23.5z" />
<glyph unicode="=" horiz-adv-x="757" d="M174 211q0 16 10.5 29.5t28.5 13.5q20 0 66 -12q50 -13 67 -13q40 0 150.5 10.5t134.5 18.5h-2q2 2 10 2q12 0 12 -12q0 -27 -74 -49t-143.5 -30.5t-99.5 -8.5q-160 0 -160 51zM229 326q0 37 62 32h12q54 0 138.5 -6.5t90.5 -21.5v2q3 -3 3 -13q0 -22 -29 -30 q-14 -4 -47 -4h-31q-98 -4 -162 -4q-17 0 -27 14.5t-10 30.5z" />
<glyph unicode="&#x3e;" horiz-adv-x="694" d="M207 442q0 12 12 24.5t23 12.5q6 0 18 -4q1 0 4 -1t4 -1q17 -6 27 -20q0 -2 6 -11v2q9 -9 29 -24q4 -2 19.5 -13.5t23.5 -15.5q98 -66 112 -84q4 2 11 2q15 0 27 -9.5t12 -25.5q0 -15 -13 -28q-25 -36 -139 -123q-36 -28 -45 -37l-14 -14q-25 -20 -45 -25q-4 -2 -15 -2 q-16 0 -26.5 10t-10.5 27q0 6 9 20q1 1 2 4.5t2 4.5v-2q2 4 4.5 7t4 4.5t5 3t4 2t5 2t5.5 1.5q3 0 11 4q11 6 48 37t46 41l43 37q6 6 14 10q-3 2 -14.5 11.5t-14.5 11.5q-100 74 -145 100q-31 17 -39 29q-10 23 -10 32z" />
<glyph unicode="?" horiz-adv-x="733" d="M137 27q0 28 35 96q2 5 33 18l24 15q9 -9 11 -9q28 -14 28 -34q0 -37 -36.5 -75t-73.5 -38q-21 0 -21 27zM332 506q0 11 4 31q4 18 57 61q28 22 47.5 39.5t43 45t36 60.5t12.5 70q0 33 -6 49t-12.5 18.5t-21.5 2.5q-26 0 -35 6q-12 8 -17 8q-4 0 -16 -6q-8 -4 -14 -4 q-11 0 -27 8t-16 18q0 18 38.5 34t57.5 16q8 0 21.5 -3.5t15.5 -3.5q24 -4 37 -4h12q2 0 6.5 1t7.5 1t11 -1t12 -1h26q14 0 21 -0.5t14.5 -6.5t7.5 -19q0 -5 -1 -14.5t-1 -14.5q-2 -10 -2 -29q0 -37 -10.5 -57.5t-36.5 -48.5q-12 -20 -18 -35q-13 -43 -31 -61 q-66 -71 -66 -113q0 -21 90 -37t134 -16q11 0 35 4t34 4q6 0 6 -4q0 -8 -25 -33t-32 -25q-5 0 -14 -6q-16 -12 -58 -12q-53 -16 -102 -16q-96 0 -188 55q-37 3 -37 39z" />
<glyph unicode="@" horiz-adv-x="1640" d="M-137 788q0 70 46.5 124t122.5 84.5t161.5 45.5t175.5 15q173 0 343.5 -45.5t309.5 -125t246.5 -181t167 -220.5t59.5 -235q0 -76 -13 -132t-34.5 -89.5t-55 -53.5t-68 -27t-79.5 -7q-63 0 -190 46t-170 54q-95 18 -162 18q-30 0 -59 -4t-33 -4l-16 -3q-16 -3 -42 -8 t-58 -10t-66.5 -9.5t-65.5 -7.5t-56.5 -2.5t-37.5 5.5q-63 -21 -104.5 -0.5t-41.5 62.5q0 44 62 118t150.5 133.5t152.5 59.5q24 0 49 -8t29 -21q9 -28 0 -68t-34 -66t-56 -13q-15 6 -12 20t13 28t11.5 28.5t-16.5 21.5q-11 5 -117 -71q-3 -2 -18.5 -13.5t-20 -14.5t-17 -13 t-17 -15l-13.5 -15t-12 -17.5t-6.5 -18t-4.5 -20.5q-1 -17 17.5 -30t35.5 -13q45 0 122 14t112 18q32 4 63 12.5t64 8.5q101 0 192.5 -15.5t146 -33.5t115 -33.5t107.5 -15.5q48 0 79.5 7.5t59.5 29t41 66t13 112.5q0 99 -39.5 192t-107 167t-156 138.5t-188 111t-201.5 80 t-197 50t-174 16.5q-73 0 -144.5 -11t-136.5 -34t-105 -64t-40 -95q0 -66 -27 -66q-26 0 -40.5 18t-14.5 45z" />
<glyph unicode="A" horiz-adv-x="1718" d="M29 137q0 44 13.5 85t27.5 62t20 21q9 0 12.5 -2.5t7 -21.5t5.5 -62q2 -74 49 -125t151 -51q146 0 443 150t706 448q261 199 459.5 391t292.5 328h-2q29 37 55 37q13 0 18.5 -0.5t13.5 -8.5t11 -24q2 -4 2 -9t-2 -9v-3q-16 -24 -24 -34h2q-14 -13 -30 -29t-37 -37.5 t-34 -34.5l-110 -110l-82 -82l-64 -60q-107 -128 -331 -425.5t-263 -346.5q57 -39 109 -56q37 -12 74 -13q14 1 27 3q49 6 74.5 14.5t72.5 29.5q1 0 13 8t26 14.5t26 8.5q6 1 10.5 -4t2.5 -15t-11 -22q-133 -92 -235 -94h-6q-99 0 -222 77q-9 -10 -96 -104q-51 -62 -100 -62 l-5 5t-7 13.5t-2 22.5q2 43 10 140q0 5 1 15t1 15q0 21 6 58q1 16 2.5 21.5t8 13t20.5 10.5q7 2 15 2q35 0 91 -35q30 -24 37 -27q42 42 200.5 249t174.5 235q1 1 1 2t-1 1q-12 0 -146 -97l-12 -9q-17 -12 -128.5 -93.5t-168 -121t-147.5 -100t-156 -96.5 q-180 -105 -365.5 -182t-304.5 -77q-99 0 -143 50h2q-59 67 -59 153zM1153 70q18 18 32.5 34.5t30.5 37.5t23 30q-8 3 -19 14q-10 11 -22 17q-7 4 -16 4q-5 0 -11 -2q-6 -9 -18 -135z" />
<glyph unicode="B" horiz-adv-x="1851" d="M47 426q0 19 2 27q13 70 201 258q116 105 269 204t320 178.5t345 128t327 48.5q52 0 142 -8q29 36 98 118q28 37 51 60l13 12q57 57 69 74q8 12 17 12q8 0 23 -13t15 -22t-9.5 -40.5t-14.5 -37.5h2q-17 -17 -66 -22l-135 -156q104 -34 146.5 -91.5t42.5 -164.5 q0 -54 -25 -131.5t-57 -132.5q-99 -172 -301 -221q-3 -1 -5.5 -20.5t-6 -51t-7.5 -49.5q-3 -15 -6 -27q-2 -7 -4.5 -18t-3.5 -14q-22 -88 -98.5 -179.5t-173.5 -164.5q122 0 314 58t304 128q12 6 33 17.5t33.5 18t26 12t20.5 5.5q8 0 8 -16q-1 -17 -52 -52t-89 -53 q-140 -71 -312 -123t-342 -57l-37 -6q-32 -8 -57 -8q-70 0 -91.5 19.5t-35.5 90.5q-6 18 -6 39t12 46.5t33 25.5q16 0 59 -39l6 -6q67 -67 103 -74q51 20 128 116t129 202q39 80 38 124q0 15 -4 25q-12 34 -21 55q-4 12 -4 17q0 16 47 16q4 0 9.5 -1t7.5 -1h16 q73 0 154 78.5t132.5 180.5t51.5 175q0 82 -35.5 126.5t-116.5 66.5q-339 -428 -603.5 -740t-528.5 -573q-86 -80 -121 -80q-19 0 -32 35t-13 57q0 15 8 22.5t17.5 9.5t29.5 3q36 4 70 19q84 58 258 247q193 206 524 609q52 64 76 92q30 34 78 94q122 147 168 219 q-64 10 -125 10q-175 0 -367 -65q-567 -206 -874 -516q-95 -99 -131 -156q-15 -18 -15 -59q0 -25 13 -51q6 -12 6 -21q0 -10 -13 -10q-30 0 -43.5 29.5t-13.5 62.5zM989 10q0 -29 24 -42t56 -13q29 0 29 6l-4 4q-74 68 -82 78q-23 -17 -23 -33z" />
<glyph unicode="C" horiz-adv-x="1114" d="M201 37q0 201 497 711q67 67 166 155t217.5 184t228.5 161t167 65t57 -60q-1 -71 -61 -178.5t-146.5 -205t-192 -167t-188.5 -69.5q-17 0 -32 9t-15 28q0 42 105.5 143.5t148.5 101.5q12 0 12 -24q-21 -25 -59 -53q-26 -16 -64 -59q-32 -36 -31 -55q0 -4 1 -7 q66 3 170 90.5t181 195.5t77 168q0 23 -31 23q-46 0 -142 -61.5t-202 -150.5t-188 -163.5t-134 -126.5q-421 -421 -421 -588q0 -104 165 -104q139 0 320 55.5t323 134.5v-2q1 1 6.5 4.5t6.5 4.5q12 6 45 6q20 0 20 -19q0 -11 -34 -28q-422 -244 -791 -244q-182 0 -182 125z " />
<glyph unicode="D" horiz-adv-x="1323" d="M180 -82q0 14 13 14q16 0 34 -22v2q0 -5 6 -8h-2q38 -47 218 -47q129 0 260 59q173 81 308 222.5t212 318.5q76 184 76 356q0 95 -35 195l-13 -29l-18 -18q-161 -205 -305 -379q-100 -119 -256 -316q-8 -13 -25 -30q-26 -29 -26 -72v-23q0 -31 -18 -68.5t-46 -37.5 q-27 0 -43 24.5t-16 51.5v16q0 17 15.5 46t53 77t59.5 75.5t77 92t63 74.5q30 35 33 38q18 24 31 37q107 119 231 281q6 9 23 26q10 13 24.5 31.5t24.5 30.5l6 8h-2l4 5q4 5 8 9t6 5q21 27 35 41q20 20 35 20q8 0 14 -2q1 0 9.5 -1t9.5 -1q-56 111 -155 169t-224 58 q-112 0 -183 -10q-40 -4 -106 -27q-8 -4 -10 -4q-84 -26 -137 -26q-15 0 -15 12q0 13 35 35q2 0 8 6v-2q65 37 178 56.5t209 19.5q527 0 527 -443q0 -198 -96.5 -424.5t-237.5 -363.5q-127 -124 -307.5 -197.5t-360.5 -73.5q-158 0 -199 84q-10 7 -10 29z" />
<glyph unicode="E" horiz-adv-x="1001" d="M135 -104q0 9 4.5 22.5t12.5 13.5q6 0 12 -6q8 27 10 41q0 2 1 6.5t1 6.5q0 1 1 5t1 5q19 108 197 262q13 10 37 31q4 4 16 12q77 61 148 123t134.5 133t63.5 104q0 50 -43 138q-45 88 -45 139q0 17 4 41q19 53 100 139t146 133q162 101 207 127q2 1 12 8.5t12 8.5 q1 1 11 6l41 20q8 4 24 4q25 0 25 -18q0 -28 -25 -49q-23 -18 -115 -70q-2 -1 -8 -3t-8 -3q-62 -31 -80 -43q-41 -27 -82 -59t-84.5 -74t-70.5 -88.5t-27 -87.5q0 -47 35 -131q39 -92 39 -144q0 -13 -3.5 -28t-8 -27t-15 -28t-17 -26.5t-22 -27.5t-22.5 -25t-25.5 -25.5 t-24.5 -23.5t-25.5 -24t-23.5 -21l-6 -6v2q-1 -1 -8.5 -7.5t-22.5 -21.5q-17 -16 -102 -88q-4 -4 -20.5 -18t-20.5 -18v2q-5 -4 -13.5 -12t-12.5 -11q-48 -42 -127 -121q-20 -24 -36 -59t-16 -64q0 -10 10.5 -18t22.5 -8q43 0 174 24q206 46 432 150l17 6l-2 -2q1 1 7 5t7 5 v-2q42 21 57 21q13 0 13 -9q0 -13 -54 -43q-8 -8 -16 -8q-274 -144 -465 -192q-6 -2 -13 -3.5t-9 -2.5q-25 -4 -37 -9q-7 -2 -20 -5t-19 -5h2q-17 -4 -62 -16t-70.5 -17.5t-41.5 -5.5q-31 0 -49.5 15t-18.5 45z" />
<glyph unicode="F" horiz-adv-x="1320" d="M242 -68q1 18 3 59.5t3 59.5q5 29 17 46t40 30q4 2 10 2q35 0 35 -72v-34q58 29 116 68.5t131 102.5t103.5 91t114.5 108q-52 3 -100 10q-4 0 -29 5q-5 1 -15 2t-14 2q-79 9 -159 24q-23 5 -32 14t-9 33q0 12 18 18.5t35 6.5q33 0 84 -14q4 0 14 -5q8 -4 19 -4 q143 -29 250 -39q265 273 387 410l6 6q1 1 3 4t3 4q29 29 49 54q19 30 81 69t95 39q18 0 45 -32t27 -44q0 -16 -16.5 -27t-32.5 -11t-23 10h2q-12 18 -24 16l-58 -10q-18 -9 -219 -236q-5 -5 -13 -15t-15 -18t-13 -14q-11 -13 -39 -44t-41 -46q-18 -19 -36.5 -41t-20.5 -24 l-49 -54q31 0 41 -2q37 -4 235 -4q96 0 135 -10q29 -14 29 -33q0 -33 -72 -33q-232 18 -436 27l-92 -92q-6 -8 -12 -14q-121 -121 -174 -170q-71 -62 -195 -142q-39 -26 -51 -37q-2 -2 -7 -5t-7 -5v2q-61 -41 -101 -41q-26 0 -26 49zM598 1206q0 10 7.5 20.5t17.5 10.5 q35 0 172 -27l30 -6q4 -1 12.5 -2t12.5 -2q15 -3 27 -6q110 -22 276 -33q176 -10 436 -10q82 0 234 -12q20 -2 73 -11q58 -10 103 -10q17 0 68 -21.5t67 -33.5v2q6 -6 6 -21q0 -6 -4 -18l-4 -27q0 -10 -40 -15t-67 -5q-8 0 -20 35q-6 14 -10 20q-4 0 -19 2.5t-16 3.5 q-133 25 -258 31q-68 0 -135 6q-19 1 -65.5 3t-67.5 3q-14 2 -54 2q-8 0 -27 1t-30 1q-6 0 -18.5 1.5t-18.5 1.5q-120 4 -176.5 6t-163 7.5t-170 15t-92.5 22.5v-2l-6 6q-80 36 -80 61z" />
<glyph unicode="G" horiz-adv-x="1421" d="M88 492q0 23 57 38q8 2 23 7q60 22 104 36q3 1 16.5 6t18.5 7q28 11 68 24q97 33 184 68q48 19 303 139h-2q125 132 324.5 289.5t331.5 218.5q10 4 32 4h35q15 0 25 -8q3 -3 6.5 -21t3.5 -26q0 -22 -26 -63t-44 -58q-143 -130 -544 -317q-1 0 -3.5 -1t-3.5 -1 q-42 -18 -65 -31h2q-107 -118 -201 -264q-1 -3 -11.5 -24l-17 -34t-12.5 -30.5t-6 -26.5q0 -14 45 -14q71 0 232 98.5t264 185.5q28 26 65.5 55t48.5 29q13 0 30.5 -16.5t25.5 -32.5l-49 -51q-2 -2 -5 -5.5t-4 -4.5l-8 -9q-4 -4 -12.5 -13.5t-13.5 -14.5l-27 -27 q-3 -3 -7.5 -8.5t-6.5 -7.5l-15 -15q-37 -37 -55 -67l-16 -14q-7 -10 -7 -13q-12 -16 -22 -26q-95 -104 -247 -220.5t-296 -183.5q111 -45 254 -45q247 0 533 154h-2q40 32 55 32q4 3 6 3q7 4 27 -3q-9 -40 -68 -73q-1 0 -3 -1t-3 -1q-6 -6 -14 -6q-113 -57 -254 -103.5 t-256 -60.5q-16 -2 -60 -2q-176 0 -301 71q-64 -20 -129 -20q-46 0 -61 27.5t-15 78.5q0 46 19 88t57 64h8q14 4 23 8q10 -10 10 -24v-11q39 -89 119 -145q143 61 320 207t294 286q-124 -95 -301.5 -179.5t-236.5 -84.5q-20 0 -29.5 1t-17.5 9.5t-7 24.5q4 92 57.5 181.5 t141.5 193.5q-209 -98 -543 -211q-13 -3 -24 -8q-8 -4 -12 -4q-59 -23 -87 -23q-11 0 -14.5 4.5t-3.5 14.5zM373 106q0 -21 12.5 -36t30.5 -15h10q32 0 41 2q-29 32 -78 109q-16 -29 -16 -60zM1047 911q63 28 142 71t161.5 94.5t143 106t71.5 93.5q-20 -5 -35 -10 q-2 0 -4.5 -1t-3.5 -1q-16 -4 -33 -4q-3 -2 -6.5 -4t-5 -3.5t-2.5 -1.5v-4l-13 -6q-1 0 -3 -1t-3 -1q-106 -48 -409 -328z" />
<glyph unicode="H" horiz-adv-x="1443" d="M98 -10q0 39 98.5 145t165.5 160q16 3 58 45q318 335 500 512q1 1 7 6t11 9.5t10 11t6 12.5q-7 2 -14 0q-1 0 -3 -1t-3 -1h2q-274 -144 -318 -144q-4 0 -4 11q0 4 2 11t2 9q11 11 122 68t163 80q29 13 82 55q11 3 25 18q4 3 7.5 6t6.5 5q87 62 160 141l4 8l10 10 q2 2 6 7.5t6 7.5l6 6q64 65 89 69q15 0 24.5 -9t9.5 -23q0 -7 -79 -86l-58 -56h2q-3 -4 -127 -139h2q-12 -15 -28 -31q-30 -30 -54 -57q-88 -99 -241 -256l-39 -41q-20 -18 -51 -49l-27 -27q-4 -4 -4 -8q0 -12 6 -12l6 4q10 0 25 12q20 10 20 15q6 0 8 2l2 2q0 6 17 12v-2 q6 6 12 6q4 2 12 10q23 17 23 27q0 13 25 29t40 16q1 -2 3 -2h14q4 0 16 8l19 12v-2q4 4 7 6l3 3q2 1 5 4t5 4q7 4 78 53q37 27 186 129l20 12t23 15q8 5 20.5 14.5t16.5 11.5q80 51 129 88q27 22 144 92q21 14 22 15q2 1 7 4t7 4t62 37q34 18 51 43v-2q0 2 6 8q1 1 2 4t2 4 q15 15 33 15q13 0 28 -5.5t15 -17.5q0 -19 -547 -676q-12 -14 -22 -24q-11 -11 -16.5 -18t-9 -12.5t-5.5 -8.5q-31 -36 -45 -56q113 -49 276 -49q71 0 170 15q35 7 70 10q11 0 35 8q8 4 16 4q15 6 27 6q18 0 18 -8q0 -38 -147.5 -64t-224.5 -26q-130 0 -275 53 q-21 -26 -64.5 -75.5t-64.5 -75.5q-2 -1 -28 -31h2q-2 -3 -7.5 -8t-7.5 -8l-86 -105l-12 -18q-14 -24 -41 -31q-12 1 -19.5 16t-7.5 27q0 7 17 45q0 10 4 16v-2q0 5 4 13q45 189 45 292q0 46 -10 80h2l-31 29q-18 -10 -78.5 -40.5t-87.5 -45.5q-15 -5 -24 -14 q-9 -7 -37.5 -37.5t-32.5 -38.5l-8 -16q0 -5 -6 -11h2q-1 -1 -3 -5t-3 -5h2q-12 -20 -25 -33q-37 -36 -193 -172q-9 -8 -27.5 -23t-23.5 -20q-49 -39 -102 -39q-9 0 -17 5.5t-8 13.5zM850 137q3 -6 10 -6q3 4 10.5 15t12.5 16q18 27 39 51l22 33q3 4 62 84l-129 82 q2 -15 2 -50q0 -24 -15 -147q-1 -5 -2 -17.5t-2 -17.5q-2 -4 -2 -10q0 -2 -1 -6.5t-1 -5.5q-2 -4 -2 -13q0 -1 -1 -4t-1 -6zM856 528q2 -26 41 -53q12 -12 18 -12q1 -1 4.5 -2t4.5 -2v2l6 -8q4 -4 10 -4q11 -11 12 -11q1 -1 4.5 -3t4.5 -3q0 -2 8 -2q49 -36 78 -47l4 2 q202 250 473 571q-9 9 -11 9q-12 0 -311.5 -198t-345.5 -239z" />
<glyph unicode="I" horiz-adv-x="735" d="M-115 -16q0 27 54.5 51t85.5 24q8 0 24 -4q12 -2 35 -2q113 0 367 223v-2q83 74 186 195t171 210t169 226q2 2 6 10q4 5 11.5 14.5t11.5 14.5l18 25q72 91 104 161q13 26 13 39q0 19 -29 19q-88 0 -283 -107v2q-8 -8 -12 -8q-8 -4 -10 -4q-14 -14 -35 -14q-22 0 -22 18 q0 11 1 13.5t7 3.5v-2q2 2 11 10t11 10q73 44 174.5 89.5t175.5 57.5q15 3 35 3q74 0 74 -58q0 -22 -14 -55q-76 -166 -331 -482t-394 -425v2q-11 -11 -13 -11q-2 -1 -5 -4t-5 -4l-37 -30q-219 -177 -411 -234q-3 -1 -23 -6q-50 -12 -76 -12q-19 0 -32 12t-13 31z" />
<glyph unicode="J" horiz-adv-x="1112" d="M-223 -342q0 41 28 103.5t64 62.5q30 0 57 -62l6 -14q8 -20 30 -37.5t44 -17.5q24 0 98 22q220 163 273 209q12 10 41.5 38t36.5 34l24 24q20 17 51 48l29 28q270 256 508 552t393 579q-57 -16 -145 -119l-17 -14l7 -4l-27 -29q-6 -8 -55 -57l-13 -15q-32 -26 -55 -53 q-2 -3 -9 -11.5t-9 -11.5q-40 -38 -66 -77q-1 -1 -5 -6.5t-5 -6.5h2q-22 -27 -25 -32q-3 -4 -6.5 -9t-8 -12.5t-7.5 -11.5q-1 -1 -5 -4t-5 -4t-3.5 -4.5t-3.5 -4.5h2l-18 -24q-46 -59 -79 -99t-81 -95t-84 -84t-57 -29q-8 0 -18.5 9.5t-10.5 16.5t6 19q0 1 2.5 4t2.5 4l4 8 q1 1 4 5t4 5h-2q64 117 334 396h-2q10 14 24 24v-2l29 29l76 73h-2q298 345 378 345q14 0 21.5 -14t7.5 -29q0 -28 -15 -82t-30 -86q-229 -387 -618 -813l-9 -9q-122 -133 -315 -313q-67 -63 -92 -84q-9 -8 -27.5 -23t-23.5 -20q-5 -4 -19 -15t-22 -18q0 -6 4 -10 q241 91 420 180q198 94 329 172q44 23 60 23q2 0 9 -4t7 -8q0 -18 -35 -41q-7 -7 -12 -7q-181 -107 -465 -239q-194 -91 -401 -172l-33 -17h-1.5t-4 -1.5t-5 -2.5t-5.5 -3l-3 -1q-3 -1 -8.5 -4t-12 -6.5t-7.5 -3.5v2q-6 -4 -10 -6q-2 -1 -7.5 -3t-7.5 -3l-16 -7v3 q-15 -7 -25 -11q-2 -1 -6 -4t-6 -4q-8 -5 -16 -8q-2 0 -13 -8v2q-5 -8 -10 -8q-4 -3 -15.5 -10.5t-15.5 -10.5q-74 -48 -118 -68q-53 -24 -89 -24q-38 0 -55.5 43t-17.5 88zM-174 -332q0 -76 53 -76q30 0 78 27q22 13 29 16q-39 14 -53 26t-21 30h2q-8 8 -8 10q-2 5 -19 16 q-5 11 -14 19t-16 8q-18 0 -24.5 -25.5t-6.5 -50.5z" />
<glyph unicode="K" horiz-adv-x="1318" d="M70 -27q0 32 51 103q325 429 616 803q11 15 37 45q111 137 230 215h-3q8 2 27 2q25 0 25 -13q0 -23 -115 -133v2q-23 -19 -31 -30h2l-6 -6q-130 -143 -348 -420q23 -3 47 -3q27 0 55 4q52 8 107 32t91.5 44t92.5 54q69 46 217 186v-2q5 4 20.5 19.5t20.5 19.5 q89 80 389 371l33 24q24 17 37 17q14 0 14 -25q4 -12 4 -14q0 -47 -127 -138q-20 -14 -59 -49q-86 -86 -184 -176t-229.5 -193.5t-217.5 -144.5q-3 -1 -10 -4t-10 -4q-5 -2 -11.5 -4.5t-7.5 -3.5q-135 -56 -213 -76q2 -76 72 -231q42 -87 114.5 -145t164.5 -58q126 3 254 68 l36 18q65 31 76 31q25 0 25 -6t-17 -19l-8 -8v2q-83 -62 -219 -117t-227 -55q-39 0 -78.5 21.5t-70.5 53.5t-61.5 76t-51 82t-39.5 80q-26 53 -58 183q0 8 -4 16q-6 12 -6 25l-22 -33q-1 -2 -6.5 -8.5t-6.5 -8.5q-242 -321 -270 -379q-1 -2 -14 -40q-1 -2 -2 -7.5t-2 -7.5 q-9 -27 -15 -37q-20 -32 -74 -32q-34 0 -34 34z" />
<glyph unicode="L" horiz-adv-x="1419" d="M23 127q0 67 54 153.5t116 86.5q17 0 31.5 -19t19.5 -41q31 -135 100 -211q192 129 432 398h-2q20 22 60 66.5t59 66.5q64 71 104 121q1 2 6.5 8t6.5 8q15 20 34 39q-3 -3 0 1q10 12 13 15q4 4 24 29q27 27 35 39q47 55 82 95.5t96.5 106.5t111 114.5t114 104t118 91 t110.5 59t103 23.5q43 0 78.5 -10t62.5 -39t27 -74q0 -63 -47.5 -150.5t-115.5 -163t-150 -129t-145 -53.5q-31 0 -31 19q0 12 19.5 24.5t37.5 18.5q51 25 112.5 73t117 106t92.5 124.5t37 120.5q0 75 -78 75q-40 0 -89.5 -20t-95 -49t-102 -77.5t-99 -89.5t-98 -100.5 t-87 -95.5t-78.5 -90q-15 -15 -21 -24l-29 -29q-2 -2 -6.5 -8t-7.5 -9t-8 -9t-6 -7h2l-23 -22h2q-5 -6 -14 -16.5t-12 -14.5q-9 -12 -58 -66h2q-8 -9 -79 -96l-80 -92q-5 -6 -16.5 -19.5t-16.5 -19.5q-3 -3 -10.5 -11.5t-12.5 -15.5q-251 -273 -426 -383q150 -69 299 -69 q104 0 213.5 32t241.5 87q6 0 12 6q18 6 21 8l33 16q104 51 157 51q19 0 19 -12q0 -15 -53 -42.5t-107 -47.5v2q-6 -6 -10 -6q-2 -2 -6 -2l-9 -4h2q-334 -154 -575 -154q-194 0 -318 84q-88 -43 -133 -43q-74 0 -118.5 44.5t-44.5 117.5zM92 127q0 -46 27 -73t74 -27 q29 0 65 16q4 0 8 4q-58 64 -84 154q0 2 -1 6.5t-1 7.5q-3 15 -12 26t-18 11q-25 0 -41.5 -46t-16.5 -79z" />
<glyph unicode="M" horiz-adv-x="1843" d="M-186 606q2 27 127 115l12 8q25 17 31 21q414 283 790 479q261 137 449 205q69 26 123 26q120 0 120 -125q0 -79 -53 -161q-7 -10 -28.5 -43t-32.5 -48q-12 -18 -66 -86q-62 -79 -65 -82q-27 -30 -23 -43q11 0 41 15q10 5 30.5 16.5t30.5 16.5q159 69 256 69 q69 0 108.5 -30.5t39.5 -94.5q0 -81 -55 -182l6 -2q80 74 209 74q34 0 57 -4.5t42 -23t19 -52.5q0 -56 -47 -143.5t-92 -131.5q-59 -55 -166.5 -165.5t-128.5 -143.5q-9 -15 -10 -16q-1 -2 -5.5 -9t-6 -9.5t-6 -9t-7 -9.5t-6.5 -8.5t-7 -8t-6.5 -5.5t-6.5 -4t-6 -1 q-12 0 -17.5 13t-5.5 26q0 20 10 43q3 9 16.5 26.5t43 48t48 49.5t62.5 62.5t56 55.5q24 24 60 60.5t48 49.5q82 82 82 158q0 28 -15 44t-42 16q-50 0 -217 -91q-14 -7 -19 -10q-93 -46 -209.5 -172t-173.5 -242q-9 -19 -16 -30t-21.5 -22t-31.5 -11q-25 0 -25 22 q0 27 36.5 84t72.5 103q16 20 90 98q10 12 33 35q150 160 198 221q92 117 92 182q0 76 -120 76q-81 0 -220 -56.5t-223 -117.5q-16 -11 -37.5 -37t-27.5 -32q-268 -280 -566 -539q-185 -154 -249 -154q-29 0 -29 31q0 27 31 78q25 36 77 92l13 12q83 85 290 283 q174 150 310 231q181 121 217 160q90 96 186 237t96 218q0 36 -22.5 55.5t-58.5 19.5q-82 0 -268 -83t-389 -200t-368.5 -219.5t-254.5 -164.5q-4 -3 -11.5 -7.5t-17.5 -11.5t-17 -12q-114 -86 -147 -86q-3 0 -12 6q-4 0 -4 -2zM438 233q0 -16 8 -16q18 0 119 84.5t197 180 t100 122.5q-25 -7 -129.5 -90t-199.5 -172t-95 -109z" />
<glyph unicode="N" horiz-adv-x="1679" d="M-318 152q2 15 4.5 36t12.5 44t25 47q17 6 28 6.5t13 -1.5l2 -3q2 -5 -10.5 -38t-10.5 -48q4 -29 20.5 -74t38.5 -68q41 -41 166 -41q47 0 153.5 22t209.5 64q141 56 369 171.5t350 197.5q76 51 305.5 192.5t302.5 194.5q38 28 81 63t85.5 72t73 64.5t66.5 60t44 39.5 q75 70 213 166q22 17 50 19h10q20 0 28 -7q1 -1 7.5 -5t8.5 -6.5l6 -7.5q4 -4 5 -9q0 -3 -2 -14q-1 -7 -7.5 -17t-17.5 -21q-22 -25 -73.5 -62t-131 -88.5t-98.5 -64.5q-81 -59 -182 -166q-17 -20 -64 -58.5t-61 -53.5q-16 -18 -89 -111.5t-87 -109.5q-27 -35 -47 -76 q11 -6 26 -2.5t29 9.5l14 7q63 33 332 135q116 41 301 52q13 1 25 1q50 -1 83 -11q40 -12 42 -29q2 -18 -11 -29.5t-49 -11.5q-248 0 -375 -43q-63 -21 -162 -65.5t-161 -80.5q-197 -108 -240 -137q-162 -112 -200 -147q-21 -17 -40.5 -41.5t-31 -40t-17.5 -17.5 q-8 -4 -23 8.5t-19 36.5q-1 3 -1 7q0 22 23 55q28 36 117.5 110t118.5 113q23 31 91.5 114t126 153.5t64.5 82.5q10 18 -12 4q-10 -5 -31 -21l-16 -11q-15 -11 -141 -91.5t-315.5 -194.5t-309.5 -175q-238 -119 -393 -179t-324 -83q-46 -7 -86 -7q-161 0 -202 112q-1 2 -1 3 q-1 1 -8 19t-9.5 25.5t-7.5 26.5q-4 15 -4 27v7z" />
<glyph unicode="O" horiz-adv-x="1204" d="M268 -14q0 36 64 100q14 16 29.5 36t23.5 32t25 38t20 31q15 25 23 33q54 86 88 131q3 4 11 16.5t11 16.5q10 12 25 35q93 131 141 182q173 182 301 295q5 4 21 19t24 22q369 338 449 338q31 0 69 -23q-8 -42 -18 -55t-51 -33q-13 -10 -31 -10l-8 2l-8 -8q-9 -2 -25 -13 l-8 -4q-2 -1 -6 -4t-6 -4q-18 -11 -31 -14q-13 -9 -35 -21q-51 -31 -111 -88v2q-8 -7 -39 -32.5t-36 -30.5v2q-45 -37 -105 -103q-14 -16 -67 -69q-133 -124 -267 -279.5t-239 -304.5q-7 -11 -35.5 -56.5t-52.5 -83.5t-25 -40q12 0 140 55.5t151 69.5q167 99 305 220 t277 280q42 51 117.5 153t84.5 129q2 6 2 21q0 10 -6 10q-18 0 -51 -53q-7 -13 -14 -23q-45 -72 -60 -72q-16 0 -16 21q0 35 41 94q1 2 4 5t4 5h-2q2 2 16 23q1 2 3.5 5t3.5 5l8 15q3 9 20 22q2 1 13 12q2 2 7 5.5t7 5.5v-2q20 17 31.5 26t32.5 18t42 9q35 0 35 -53 q0 -25 -29 -66h3q-1 -1 -7.5 -8t-7.5 -8t-4 -5.5t-4 -5.5q-65 -123 -117 -192q-1 -2 -6 -8.5t-6 -8.5q-2 -3 -6 -7.5t-7 -8.5t-5 -8q-65 -79 -109.5 -131t-111 -124t-123 -123t-129.5 -106t-146 -96q-30 -16 -162 -78q-19 -13 -41 -20q-4 -2 -19.5 -9t-19.5 -9 q-15 -6 -45 -26.5t-32 -21.5l-15 -10q-6 -8 -8 -10q-14 -14 -39 -23q-6 -2 -14 -2q-27 0 -67 16t-40 38zM1593 1288v2l2 -2h-2z" />
<glyph unicode="P" horiz-adv-x="1144" d="M186 -102q0 18 33 12h10q14 0 47 37l29 28v-2q25 9 171.5 170t281 318t131.5 157q50 60 94 109q4 6 18 22.5t21 26.5q154 180 209 250q22 32 64.5 75.5t64.5 43.5q29 0 29 -23q0 -27 -52.5 -94t-246.5 -285q-14 -21 -21 -28q-1 -1 -2 -3t-2 -3q-17 -17 -29 -33 q-24 -35 -55 -62q-30 -27 -70 -84q-19 -24 -54 -60.5t-52 -57.5q-6 -8 -19 -22.5t-14 -16.5q-90 -111 -137 -160l-57 -72q-9 -18 -79 -90t-96 -92q-13 -5 -57 -59h-4q-5 -4 -9.5 -6t-10 -4t-23.5 -12.5t-45 -27.5q-12 0 -40 20t-28 28zM424 887q0 4 2.5 8.5t8.5 10.5 t11.5 11t14.5 12.5t15.5 12t16.5 12.5t15 11q91 65 214 137.5t208 107.5q185 76 315 107t303 31q110 0 185 -68.5t75 -173.5q0 -116 -106 -242q-103 -103 -241.5 -198t-264.5 -138q-32 -4 -57 -4q-24 0 -43 8q-18 11 -42 34.5t-28 39.5q8 8 29 8q31 0 55 -24h-2 q14 -21 31 -21q37 0 110 43q101 59 224 155.5t180 170.5q63 80 63 174q0 63 -35 121q-35 57 -170 57q-113 0 -247 -30t-246 -76q-280 -117 -479 -262q-66 -52 -99 -52q-6 0 -11 5t-5 12z" />
<glyph unicode="Q" horiz-adv-x="1505" d="M158 -6q0 23 20 63q21 43 33 56q11 12 66.5 66t119.5 124q9 1 20 12t13 19q30 40 100.5 95.5t96.5 84.5l573 451l14 11q14 10 39 27.5t55.5 39t64 44.5t64 42.5t57 34.5t40.5 20q9 4 29 16.5t32 16.5h19q51 0 51 -43q0 -12 -11.5 -30.5t-21.5 -21.5q-1 0 -10.5 -2 t-11.5 -2q-34 -8 -39 -16l-12 -10q-37 -7 -91.5 -50.5t-68.5 -50.5q-18 -11 -43 -16q-2 0 -21 -3.5t-20 -4.5q-23 -12 -441 -348q-154 -125 -146 -121l3 2l-127 -116q-133 -118 -182 -161l-10 -10q-26 -26 -79 -92t-48 -84q0 -23 28 -23q6 0 18.5 1t18.5 1q38 0 204.5 62 t231.5 112q14 11 57.5 37.5t67.5 53.5q17 17 17 18q0 8 -11 15.5t-25 13t-25 14.5t-11 20q0 21 20.5 35.5t43.5 14.5h4q4 0 23.5 -2t23.5 -2q52 -33 92 -33q42 0 233 131q66 46 314 244q58 50 135.5 127t89.5 88q30 18 68 73q32 46 32 68q0 13 -10 18t-27 2q-1 0 -12 -1 t-12 -1q-8 -4 -16.5 -16t-16.5 -16q-1 0 -10.5 -4.5t-11.5 -4.5q-58 -21 -139.5 -83.5t-166 -134t-127.5 -97.5l-71 -55l-4 -4l-58 -45h-6q-26 0 -26 10l20 28q81 90 84 93q83 75 122.5 109.5t133 109.5t199.5 151q13 -2 53.5 16t48.5 19q14 2 27 2.5t31 -2t31 -9.5t22 -23 q8 -13 8 -33q0 -24 -15 -63q-14 -37 -42 -83q-3 -4 -33.5 -38t-34.5 -38q-60 -75 -133 -147.5t-163 -143t-156 -119t-173 -122.5t-153 -107q-24 -17 -41 -69t-17 -88v-15q6 -14 28.5 -22t39.5 -6q181 14 362 92q125 55 143 71l-3 -1q34 15 52 15q13 0 16 -9q6 -19 -33 -50 q-17 -13 -39 -24q-2 -1 -31 -17.5t-56.5 -31.5t-31.5 -15q-232 -109 -424 -139q-11 -2 -59 -2q-13 0 -36.5 13t-29.5 22l-31 55v8q0 13 2 40t2 40q0 21 -12 21q-4 0 -20.5 -9.5t-59.5 -32t-98 -46.5q-161 -85 -451 -170q-4 0 -24.5 -2t-24.5 -2h-2q-27 0 -44 32t-17 62z" />
<glyph unicode="R" horiz-adv-x="1552" d="M262 -47q0 14 55 22q5 0 10 1l5 1q27 5 43 17q245 239 446 475h-2q66 72 142 158l75 86q70 87 78 96q11 14 64 76l30 37q5 6 16.5 19.5t16.5 19.5q23 28 60 62t63 46h6q41 0 41 -27q0 -18 -27 -49h2q-35 -35 -47 -49h2q-2 -2 -6.5 -7.5t-5.5 -6.5l-4 -4q-1 -1 -4.5 -3.5 t-5.5 -4.5v2q-2 -1 -6 -4.5t-6 -4.5q-15 -16 -21 -22q-11 -13 -27 -25l-18 -18v2q-8 -6 -35 -33q-182 -214 -244 -289q-66 -83 -73 -90q-2 -2 -7 -7.5t-6 -6.5l-4 -4q-8 -8 -8 -10v2l-16 -17q-33 -38 -43 -51h2q-2 -2 -6 -7t-6 -7t-5.5 -6.5t-5.5 -6.5t-5 -6t-5 -6 q-21 -21 -25 -27q-87 -107 -192 -213t-191 -161q-12 -6 -30 -6q-21 0 -45.5 19.5t-24.5 37.5zM477 825q0 54 389 265q394 172 662 172q106 0 171.5 -64.5t65.5 -171.5q0 -45 -41 -125q-48 -70 -75 -100q-3 -4 -10.5 -12.5t-10.5 -12.5q-61 -61 -197 -144t-219 -114l-8 -2 q-28 -9 -45 -29q-23 -43 -42 -151.5t-19 -163.5q0 -66 19.5 -90.5t82.5 -24.5v9q15 0 31.5 -1.5t17.5 -1.5h13q1 0 4.5 1.5t5.5 1.5q111 16 241 81q4 0 12.5 4.5t18.5 11t12 7.5q1 0 3.5 1t3.5 1q7 3 21 9.5t22.5 9t17.5 2.5q21 0 21 -5q0 -8 -25 -26.5t-49 -30.5 q-97 -57 -225.5 -99t-227.5 -42q-32 0 -53 11.5t-31 33.5t-14 45.5t-4 54.5q0 69 21.5 167t52.5 167q0 14 -21 35q-37 26 -37 49q0 18 14.5 32.5t32.5 14.5q39 0 80 -41q2 0 10 4q13 0 15 2q4 4 8 4l18 6q29 6 50 17q62 24 136.5 75t142.5 114.5t113.5 138t45.5 137.5 q0 41 -23.5 71t-61 46t-74.5 23t-73 7q-220 0 -430 -90q-220 -96 -403 -211l-22 -13l-1 -1q-6 -6 -10 -8q-97 -68 -106 -68q-17 0 -17 12zM1169 567q1 6 7 6z" />
<glyph unicode="S" horiz-adv-x="978" d="M-135 68q0 18 13 27t32 9q28 0 88 -43q6 -6 10 -6l10 -10q5 0 7 -2q4 -4 6 -4q37 -24 96 -36.5t113 -12.5q43 0 75 12q47 23 110.5 89.5t130 158.5t119 171t105.5 165q6 9 27 45v-2q2 2 5 8t5 8q-1 0 2 4.5t8 13t7 11.5v-2q39 61 69.5 107t82 117t96.5 123t104.5 110.5 t114.5 95.5t119.5 61.5t125.5 24.5q22 0 59.5 -6.5t78.5 -18t70.5 -32t29.5 -44.5q0 -29 -12 -34q-3 -1 -8 -1q-20 1 -76 31q-68 38 -105 37q-57 0 -114.5 -18.5t-105.5 -47.5t-99 -74.5t-89 -87.5t-81.5 -100.5t-71.5 -100t-64 -97.5q-191 -300 -387 -572 q-141 -185 -252 -225q-68 -20 -131 -20q-93 0 -231 71q-92 50 -92 97z" />
<glyph unicode="T" horiz-adv-x="1089" d="M174 -70q0 9 14.5 25t47.5 41t47 35t53 37q6 4 16 14v-2q10 5 23 18v-2q109 75 305 252q3 3 45 39q27 27 37 35q282 257 614 571l19 19v-2q24 19 24 24q-18 4 -20 4h-33q-6 0 -18.5 -1t-18.5 -1h-104q-100 0 -293 21q-9 1 -29 3t-29 3t-27.5 4t-27.5 4q-26 4 -84 11.5 t-88 11.5q-55 9 -89 36.5t-54 79.5q0 2 -1 4t-1 5q0 20 26 20q18 0 35 -14v2q1 -2 6 -4.5t6 -3.5q42 -31 80 -41q73 -20 199 -31q12 -4 31 -4q6 -2 33 -2q104 -10 249 -21q19 -2 59 -5t60 -5l4 -1q4 -1 8 -1h15q51 -4 629 -43q10 -1 30.5 -2t30.5 -2q32 -4 63 -4 q140 -10 254 -10q26 0 53 -10.5t27 -32.5q0 -17 -18.5 -25t-36.5 -8q-34 0 -88 8q-4 0 -14 1t-15 1l-37 4q-21 1 -82 5.5t-92 6.5q-15 1 -42.5 3.5t-41.5 3.5q-15 1 -43 4t-41 4q-17 0 -49 4q-86 6 -176 6h-45q-48 0 -68 -4q-531 -491 -768 -705v2l-178 -157l-49 -45 q-8 -7 -24.5 -20.5t-24.5 -20.5q-1 -1 -16 -15t-23 -22q-42 -39 -115 -94q-78 -54 -110 -54q-11 0 -20 16t-9 27z" />
<glyph unicode="U" horiz-adv-x="1421" d="M236 0q0 13 4 37q5 48 16 67q7 14 13 24t11.5 19t14 22t15 22t22 31t26.5 37.5t37.5 51.5t46.5 64q12 18 25 31q82 97 174 196q60 69 129 145.5t168.5 184t134.5 145.5q8 9 24.5 26.5t24.5 26.5q11 13 8.5 16.5t-18.5 0.5q-56 -9 -274 -105q-16 -12 -37 -22 q-21 -1 -26.5 3.5t-1 14.5t4.5 11q0 3 23 18q14 8 80 34t112 50q65 35 124.5 58t89 30.5t42.5 7.5q35 0 35 -30q0 -21 -2 -23q-71 -71 -204 -212.5t-300.5 -326.5t-287 -341t-119.5 -203q0 -27 32 -27q52 0 171 67.5t212.5 134t167.5 124.5q122 100 334 305q45 45 113 123 t143 147l60 55q11 9 24.5 8t23.5 -9q8 -6 8 -12q0 -2 -1 -3q-5 -12 -16.5 -28t-48.5 -66.5t-81 -114.5q-39 -49 -63 -84q-86 -109 -113 -145q-112 -148 -166 -246q-39 -72 -71 -145q-43 -84 -43 -146q0 -43 35 -43q21 0 42.5 22t31.5 40t30 57q13 24 17.5 33t13.5 24t16 20 t14 5q15 0 15 -14q0 -12 -29 -68q-2 -3 -13 -25t-19.5 -36t-24 -38t-31.5 -40t-36.5 -32.5t-45.5 -25t-51 -8.5q-32 0 -43.5 16.5t-11.5 51.5q0 172 272 551q24 45 5 42q-13 -2 -42 -24q-152 -152 -366 -303t-412 -244q-111 -47 -139 -47q-24 0 -36.5 7.5t-12.5 29.5z" />
<glyph unicode="V" horiz-adv-x="868" d="M-37 -147q0 24 55 79l21 25q13 16 104 127l93 113q5 5 30 34q5 6 14.5 18.5t14.5 18.5q52 66 115 142q157 198 258 348q9 13 26.5 39.5t26.5 40.5q9 15 28 41.5t25 35.5q59 87 135 231.5t76 199.5q0 38 -24 38q-14 0 -36.5 -16.5t-31.5 -28.5h2q-6 -6 -6 -8 q-16 -20 -17 -20q-16 0 -16 10q0 42 58 97t100 55q23 0 34 -18t11 -42q0 -84 -81 -253.5t-155 -278.5q-3 -4 -8 -11.5t-8 -11.5q-17 -27 -41 -59q-50 -70 -90 -133l-68 -105q-6 -10 -18 -26q-14 -18 -19 -29q0 -10 11 -10q6 0 14 4q211 171 391 254q226 92 580 92 q18 0 42.5 -23.5t24.5 -36.5q0 -4 -11.5 -10t-16.5 -6t-17 8t-16 8q-22 5 -64 5q-109 0 -242 -38t-261.5 -101.5t-240.5 -131.5t-210 -141q-60 -42 -164 -146l-18 -18q-3 -3 -8.5 -9t-8.5 -9q-137 -142 -174 -183q-3 -3 -15 -16t-20 -21l-8 -8q-81 -94 -112 -119 q-18 -22 -37 -22q-8 0 -17.5 7.5t-9.5 17.5z" />
<glyph unicode="W" horiz-adv-x="2050" d="M428 541q0 102 160 303q147 166 408.5 338.5t488.5 259.5q61 22 123 22q100 0 148 -50t48 -152q0 -82 -29.5 -174t-85.5 -189t-104 -168.5t-116 -166.5q-11 -15 -17 -23q-25 -35 -29 -41q-3 -5 -13 -17.5t-13 -17.5q67 -2 108 -37.5t41 -97.5q0 -95 -69 -226 q0 -16 10 -18q12 7 57 49q2 2 7.5 6t7.5 6v-2l9 9q8 9 19 20v-2q85 64 193 123t205 90q49 18 108 18q66 0 66 -26q0 -21 -131 -53q-11 0 -15 -2q5 0 -4 -9l-2 6q-157 -41 -379 -202q-113 -78 -268 -219q-2 -2 -5.5 -5t-4.5 -4q-2 -1 -9 -8q-6 -6 -12 -10q-6 -6 -16 -6 q-16 0 -27.5 22t-11.5 39q0 24 31 45q1 1 7 6.5t7 6.5v-2q52 45 108 149.5t56 169.5q0 68 -72 68q-33 0 -80 -15q-83 -33 -287 -237l-18 -19q-100 -100 -127 -110h-8q-31 0 -31 28q0 20 23 52q37 49 137 145l12 12q4 3 13 11.5t10 9.5l63 61q9 9 43 41.5t51 50.5l78 80 q121 120 256 357.5t176 406.5q7 31 7 60q0 106 -107 106q-43 0 -117 -16q-167 -41 -361.5 -162.5t-342.5 -259.5q-103 -91 -192 -215.5t-89 -223.5q0 -38 31 -69l8 -12v2q9 -9 10 -9q6 -3 11 -8q12 -8 18 -14q12 -8 16 -8q1 -2 6 -5l5 -3l3 -4q3 -3 3.5 -3t1.5 2q4 -4 4 -10 q0 -16 -31 -16q-30 0 -82 35t-78 67q-18 36 -18 64z" />
<glyph unicode="X" horiz-adv-x="1572" d="M0 -43l711 610q-70 221 -70 412q0 95 14 166q10 72 35 106q12 15 18 22t20 15t28 8q19 0 35 -4q-35 -88 -46 -145q-6 -41 -6 -109q0 -108 15 -234t37 -190q11 11 41.5 38.5t44.5 41.5v-2l32 33q83 79 162 162q28 28 68 78q9 11 31.5 38t37.5 44t29 30v-4l18 21 q115 110 175 110q18 0 16 -6q-2 -18 -96 -135q-3 -3 -33 -41h2q-2 -2 -7.5 -8.5t-6.5 -7.5q-21 -31 -74 -80v2q-4 -2 -21 -19q-6 -6 -19.5 -18.5t-19.5 -18.5l-38 -36q-160 -160 -314 -287q24 -68 61.5 -142.5t91 -151t113 -136.5t131.5 -98.5t142 -38.5q40 0 119 41l24 14 q9 0 17 -10q6 -8 6 -15q0 -9 -13 -35q-1 -2 -4 -6t-4 -6q-91 -51 -188 -51q-55 0 -106 14t-91.5 35.5t-79 57t-67 69.5t-58.5 81.5t-50.5 85t-45.5 87.5q-7 13 -20 49q-30 72 -49 103q-3 -2 -156 -125q-20 -16 -60 -47t-57 -45q-7 -6 -24.5 -19.5t-24.5 -19.5q-2 -2 -8 -7.5 t-8 -7.5q-222 -169 -347 -307q-8 -16 -28 -16q-13 0 -23 19t-12 36z" />
<glyph unicode="Y" horiz-adv-x="1001" d="M94 -197q0 5 6 17q36 54 187 190q15 14 65 64q131 131 324 301q15 13 43.5 38.5t42.5 39.5v-2l20 20q5 5 22.5 21.5t22.5 21.5l70 61v-2l25 25q22 22 51 37q-7 7 -10 16q-48 -9 -48 -11q0 -1 -6 -3q-190 -59 -204 -59q-27 0 -52.5 23.5t-25.5 51.5q0 30 116 201 q148 207 148 252q0 11 -12 19t-25 8q-47 0 -115 -68v2q-39 -34 -131 -117l-18 -18q-1 -1 -4 -3t-4 -3v2q-24 -16 -31 -23q-10 -10 -29 -10q-12 0 -12 10q0 34 211 230l14 14v-2q61 51 127 51q42 0 65 -14.5t23 -53.5q0 -23 -12 -81v2q-13 -51 -73 -152.5t-99 -140.5l-6 -6 q-31 -31 -37 -43q-4 -8 -4 -17q0 -16 20 -16q68 0 240 82t270 145q18 13 29 19q152 104 207 161q37 33 71 33q16 0 31 -8t15 -23q0 -38 -91 -96l-75 -49q-40 -22 -84 -66q-56 -53 -117 -96q-13 -8 -23 -20v2l-32 -25q-174 -134 -219 -196h2l-48 -47q-2 -2 -7.5 -7t-8.5 -8v2 q-10 -8 -30 -27.5t-27 -25.5v2q-103 -89 -127 -121q-23 -29 -68 -69q-2 -2 -5.5 -5t-4.5 -4l-8 -8q-68 -62 -70 -65h2q-36 -43 -125 -109q-49 -36 -104 -86q-59 -53 -105 -117q-2 -4 -8 -10q-40 -50 -49 -59q-3 -6 -29 -6q-16 0 -31.5 9t-15.5 25z" />
<glyph unicode="Z" horiz-adv-x="1173" d="M51 70q8 24 27 45t43 28q49 15 167 75t179 101q44 20 143 84q8 5 35.5 22.5t46.5 30.5t33 25q61 48 94 70q57 44 200 166t200 180q64 52 108.5 119t44.5 104q0 44 -31.5 76t-76.5 35q-19 0 -39 12q-24 12 -39 12l-23 9q-140 44 -149 69q0 17 16 21h19q29 0 122 -33 q13 -8 33 -8q15 0 27 -2q90 -11 172 -62q22 -17 33 -33t24 -45v-30q0 -49 -16 -84q-4 -12 -27 -49q-1 -2 -4 -6.5t-4 -6.5h2q-4 -4 -12 -8l-5 -3q-4 -3 -10 -9q-26 -53 -235.5 -238t-296.5 -248q-5 -4 -18.5 -12t-18.5 -12q-23 -17 -46 -35.5t-52.5 -41.5t-48.5 -38 q0 -16 47 -24q78 -12 78 -94q0 -48 -27 -119q-2 -11 -2 -19q0 -47 49 -47q13 0 46.5 7.5t53.5 15.5q178 73 183 75q2 1 42.5 20t69.5 29.5t39 6.5q7 -5 8.5 -11.5t-4 -13.5t-13 -13.5t-20.5 -14.5t-23.5 -14.5t-26.5 -15.5t-25 -14q-4 -2 -42 -19t-42 -19q-28 -13 -50.5 -24 t-39.5 -18.5t-56 -21.5q-2 -1 -30.5 -11t-46.5 -16q-16 -8 -84 -8q-56 0 -90 13.5t-23 46.5l4 14l10 18q0 3 5.5 9.5t7.5 11.5q15 47 15 83q0 41 -33 63q-32 22 -95 22q-10 0 -26.5 -6t-34 -14.5t-21.5 -10.5q-11 -5 -45.5 -19.5t-57 -27.5t-40.5 -31q-53 -37 -88 -49 q-17 -7 -41 -24q-58 -43 -80 -43q-63 0 -68 47z" />
<glyph unicode="[" horiz-adv-x="755" d="M-88 -377q0 23 76 119l6 4q2 2 5 7t5 7q4 7 8 7l-2 2q15 19 131 178q11 14 41 57q5 6 14.5 19.5t14.5 19.5q3 4 28.5 39.5t39.5 52.5q4 6 16.5 24.5t19.5 26.5q11 16 36.5 49.5t37.5 51.5q110 147 182 254q2 3 7.5 10t7.5 10q6 9 29.5 44t31.5 47l29 43.5t31 47.5 t27 44.5t28 48.5t24 44.5t23 47.5q28 58 80 198q15 15 29 15q26 0 65 -39h-2q2 -1 8 -6t8 -6q12 -10 61.5 -60t49.5 -53q0 -10 -8 -15.5t-17 -5.5h-12l-139 95q-20 -41 -41 -99q-1 -6 -17 -37q-23 -53 -120 -217v2q-1 -2 -4.5 -5t-4.5 -5q-6 -9 -6 -12q-283 -443 -719 -1004 q55 -2 103 -24q-4 4 5 1q3 -1 13 -6l17 -7l10 -5q12 -12 12 -16q0 -12 -12.5 -19.5t-22.5 -7.5q-19 0 -59 9q-6 0 -14 4q-24 6 -49 6h-39q-4 0 -12 -1t-11 -1h-20q-29 0 -29 16z" />
<glyph unicode="\" horiz-adv-x="602" d="M-47 1073q0 18 8.5 40t15.5 22q11 0 19 -5.5t14 -18.5t8.5 -21t6.5 -25q3 -12 6 -21q44 -136 73 -262q79 -251 115 -391l6 -31q1 -5 4 -15t4 -15q33 -125 76 -281q2 -7 6.5 -23.5t6.5 -23.5q36 -134 38 -141q26 -70 51 -176t25 -162v-25q0 -4 1 -11t1 -11q0 -27 -20 -27 q-19 0 -33 15.5t-16 33.5q-3 18 -23 105q-45 189 -72 282q-123 432 -280 1049q-5 16 -13.5 44t-11.5 38l-5 21q-6 21 -11 36z" />
<glyph unicode="]" horiz-adv-x="536" d="M-377 -391q0 27 23 39q7 2 22 -6q8 -4 15 -4l14 -33q73 -7 156 -45q20 27 38 59q8 10 29 41q42 58 80 104q15 15 35 39l31 37q25 25 57 66v-2q1 2 5 7t5 7q82 97 150 193l49 61q3 4 26.5 36t34.5 48q25 25 49 55q40 45 52 60q102 118 151 184q135 172 150 295 q-36 2 -80 20l-6 2q-40 12 -86 15h-15q-2 0 -6 1t-6 1l-152 20q-18 18 -18 27q0 11 13 15.5t26 2.5q32 0 98 -8q8 -2 25 -2q4 0 12 -1t12 -1q6 -2 19 -2q3 0 9 -1t9 -1q61 -4 76 -8q33 -10 51 -10q12 0 35 -9q12 -6 25 -6q12 0 24 -8t12 -20q0 -38 -41.5 -137t-70.5 -142 q-41 -57 -182 -233l-105 -127l-24 -31q-117 -140 -158 -199q-41 -63 -178 -229q-5 -5 -13 -15t-15 -18t-13 -14q-40 -46 -41 -47l-19 -23q-6 -8 -14 -20q-10 -10 -16 -19q-10 -10 -35 -45l-12 -22h-1q-3 -9 -26 -35q-23 -31 -43 -31q-19 8 -39 16q-8 3 -19 7.5t-18 7.5 t-10 4q-7 0 -19 4q-119 24 -129 41q-8 13 -8 39z" />
<glyph unicode="^" horiz-adv-x="694" d="M203 563q0 13 6 25q4 4 4 10q8 28 39 55q2 1 18 17q21 24 154 168q4 6 14 16q28 32 56 49q20 15 36 15q35 0 35 -37q0 -5 -6 -23q13 -10 36 -45t30 -51q3 -9 41 -72q1 -1 3 -4t3 -4q0 -4 2 -6q11 -19 22 -27q8 -8 11 -8q16 -10 18 -31q4 -16 4 -28q0 -13 -17.5 -29 t-31.5 -16q-13 0 -25 6q-28 14 -41 51q-27 60 -84 137q-3 5 -20 27.5t-25 36.5q-4 -4 -11.5 -13t-10.5 -12q-34 -39 -47 -49q-50 -50 -58 -59q-3 -4 -10 -11.5t-10 -11.5v2q-1 -2 -5 -8t-5 -8q-2 -3 -10 -13l-13 -16l2 4v2l-6 -14q-10 -23 -33 -39q-12 -12 -30 -12 q-12 0 -23.5 7t-11.5 19z" />
<glyph unicode="_" horiz-adv-x="925" d="M-92 41q0 6 35 18q36 11 100 11h14q40 -3 82 0q13 0 41 -2t43 -2l113 -3q32 -1 94 1t84 2l180 -3q26 -2 101 3q52 3 104 0h25q15 -3 34 -3q11 0 34.5 -11.5t23.5 -20.5q0 -11 -14 -21t-27 -10q-4 0 -15.5 -1.5t-17.5 -0.5h-47q-25 2 -74 2h-73q-68 1 -203 -1t-201 -1 l-131 2q-10 0 -53.5 2.5t-50.5 -0.5q-39 -2 -142 -2q-9 0 -34 17.5t-25 23.5z" />
<glyph unicode="`" horiz-adv-x="1705" d="M741 887l4 20l13 17l20 10q21 -4 34 -12t28.5 -27t19.5 -23q46 -54 84.5 -90.5t58 -51.5t25.5 -25q7 -5 19 -18t20 -19q8 -7 15.5 -12.5t10 -7.5t3.5 -3q16 -13 30 -31q-7 -12 -22 -15t-27 3q-5 3 -13 8t-13 8q-12 6 -21 17l-18 10q-16 11 -49.5 31t-59.5 38.5t-49 41.5 q-8 7 -25 22t-30.5 26.5t-26.5 20.5q-5 10 -8 13q-18 37 -23 49z" />
<glyph unicode="a" horiz-adv-x="753" d="M18 25q0 57 29 98q30 38 89 98.5t106 97.5q58 47 125 77q56 25 107 25q10 0 20 -1q45 -4 72 -17t44 -51q6 -13 5 -25q0 -23 -19 -46q-28 -22 -58 -33t-44 -2q-4 2 -4.5 7t0.5 9l2 4q2 4 4 6q4 14 16 25q11 11 10.5 26t-8.5 23t-31 14q-6 1 -14 1q-38 1 -100 -35 q-74 -42 -136.5 -98.5t-85.5 -92.5q-14 -27 -8.5 -35.5t29.5 -13.5q62 3 139 49q38 21 60 43h-2l22 21q31 26 57 10v2q1 -1 5.5 -4t5.5 -4q1 0 3 -1q4 -2 4 -8q-1 -7 -1 -14q0 -14 -27 -37q-16 -11 -20 -47q-3 -22 15.5 -29t53.5 -1q68 12 312 137q28 15 47 15q11 0 18 -5 v-10.5t-6 -11t-11.5 -12t-15 -12t-16.5 -11t-17 -10.5t-16 -9t-13.5 -7t-8.5 -5q-19 -9 -85.5 -44t-100 -50.5t-87.5 -32t-98 -16.5q-34 0 -52 22t-19 44l-1 22q-139 -78 -252 -78q-20 0 -31.5 10t-11.5 23z" />
<glyph unicode="b" horiz-adv-x="911" d="M-82 117q0 13 25 30q18 12 59 35q185 106 277 172q15 10 41 32.5t45 35.5q22 13 45 31t39 32t59.5 53.5t75.5 67.5q12 16 65.5 66t67.5 61q64 62 198 166q31 25 71 43q33 15 59 15q5 0 10 -1q30 -4 30 -33v-5q-2 -7 -7 -16.5t-15 -22t-19 -23t-24 -25.5l-24.5 -24.5 t-26.5 -25.5t-23.5 -22t-22 -19.5t-16.5 -14.5q-19 -17 -46 -37t-60.5 -42.5t-46.5 -31.5q-38 -27 -80 -53t-74 -47q-5 -3 -23 -13.5t-26 -15.5q-2 -2 -6 -5t-6 -5q-147 -103 -269 -305q-2 -3 -17 -24.5t-26.5 -41t-11.5 -28.5q0 -15 5.5 -21t17.5 -4q38 3 100.5 38.5 t110.5 76.5q18 16 30.5 30t24 30.5t16.5 23.5q24 29 29 33q22 20 37 12l10 -10l6 -6q4 -4 4 -7q5 -3 -14 -30q-15 -15 -19 -23q-10 -10 -14 -18q-1 -4 -10 -17q-11 -22 -11 -38q0 -18 13 -29q22 -24 77 -30q14 -2 28 -2q40 0 77 13q14 5 32 11.5t21 7.5q8 3 38 16.5t54 22.5 t33 8q29 0 3 -27q-8 -9 -17 -14q-24 -17 -90 -49q-39 -19 -101 -32t-102 -13q-42 0 -58 4t-44 20q-18 9 -27 31q0 4 -1 8l-1 4q-2 5 -5.5 5.5t-6.5 -3.5q-1 0 -5 -3t-7 -7q-33 -22 -37 -27q-23 -18 -36.5 -27.5t-30 -19.5t-30.5 -20q-25 -16 -52 -24.5t-43 -9.5t-44 -1 q-29 0 -43 8.5t-14 34.5q0 15 5 33t10.5 31t19 35t18.5 29.5t21.5 30.5t17.5 25q5 7 17.5 22t17.5 23q1 2 6 8.5t6 8.5l10 12q13 21 -1 20q-11 -1 -27 -12q-178 -110 -213 -129q-6 -3 -19 -10.5t-19.5 -11t-16.5 -8t-19.5 -6.5t-18.5 -3q-5 0 -10.5 5.5t-5.5 11.5z" />
<glyph unicode="c" horiz-adv-x="598" d="M45 31q0 53 24.5 110t61.5 101q32 38 52.5 58.5t68.5 59.5q59 48 94.5 61t81.5 13q33 0 64.5 -15.5t31.5 -45.5t-39.5 -83.5t-68.5 -53.5q-27 0 -27 24q0 10 8 23q25 25 25 45q0 14 -15 21t-32 7q-45 0 -101 -44.5t-94.5 -105.5t-38.5 -106q0 -55 80 -55q160 0 447 170 q53 31 75 31q7 0 7 -8q-1 -29 -154 -116t-213 -106q-151 -51 -246 -51q-34 0 -63 17t-29 49z" />
<glyph unicode="d" horiz-adv-x="819" d="M25 45q44 237 434 389q6 0 12 6q26 11 43 11q22 0 57 -41l13 12q16 16 20 22q43 47 96 111.5t122.5 152.5t88.5 111q22 27 64 80.5t63 79.5q7 9 22.5 28.5t22.5 28.5q33 37 66 37q11 0 22 -6t11 -16q0 -19 -39 -68q-35 -40 -62 -68q-48 -51 -75 -88q-71 -103 -107 -143 q-11 -11 -43 -47q-7 -8 -25 -30t-49.5 -61.5t-52.5 -64.5q-46 -54 -102 -127t-62 -86q0 -8 -4 -12v2q0 -1 -3 -4t-6 -7t-7.5 -13t-9.5 -21.5t-11 -33t-12 -46.5q0 -57 49 -57q63 0 197 71l96 48q46 22 68 22q24 0 30 -12l-10 -6q-76 -57 -228 -128t-222 -71q-38 0 -54 16.5 t-16 53.5q0 26 6 45q7 13 5.5 28.5t-25.5 16.5q-5 -5 -54 -37q-37 -23 -83.5 -54.5t-64 -41.5t-48 -18.5t-70.5 -8.5q-22 0 -42 12.5t-21 32.5zM137 100q0 -22 6 -25q4 -1 9 -1q39 0 119.5 51.5t147 119t66.5 107.5q0 7 -5 14t-11 9q-9 3 -16 3q-4 0 -7 -1q-5 -2 -34 -14.5 t-46 -21l-44 -22t-49.5 -29t-41.5 -32.5q-35 -32 -64.5 -84t-29.5 -74z" />
<glyph unicode="e" horiz-adv-x="563" d="M23 113q18 60 57.5 123.5t89.5 109.5q25 37 70.5 59.5t85.5 22.5q13 0 27.5 -2t32 -7.5t29 -16.5t11.5 -27q0 -43 -2 -49q-2 -7 -5.5 -17.5t-5.5 -15.5t-6 -12.5t-9 -14t-13 -14.5q-8 -7 -14 -13l-7 -7t-3 -2.5t-3 -1t-8 -1t-16 -4.5q-121 -44 -166 -69q-3 -2 -25.5 -8.5 t-25.5 -12.5l-4 -20q0 -64 90 -64q60 0 184 47q41 16 73 31t52 23.5t51 17.5q6 2 10.5 -5.5t4.5 -16t-5 -13.5q-66 -40 -180 -92q-66 -30 -143 -54t-127 -24q-55 0 -84 33q-12 28 -12 63q0 5 -3 25q-2 12 -2 20q0 5 1 9zM139 211q46 6 106.5 33t90.5 57q3 7 3 14q1 11 -7 21 q-12 18 -39 18q-75 0 -154 -143z" />
<glyph unicode="f" horiz-adv-x="708" d="M-918 -1087q1 30 108 159t171 195q69 71 172 190q33 31 68 74q9 10 30.5 35.5t34.5 38.5q6 7 17.5 20.5t17.5 20.5l221 256q258 291 369 436l67 92q6 8 19 21.5t16 17.5q31 37 90 115q36 45 86 102q8 10 111 125q10 11 31.5 37t31.5 37q86 98 129 149q9 10 26.5 28.5 t25.5 27.5q178 203 209 237q12 14 45 47q80 92 186 180q77 65 138 101q58 35 115 35h3q8 -1 8 -3.5t8 -5.5q23 -9 23 -34q0 -9 -8 -20.5t-15 -12.5l-5 2.5t-6 2.5t-7 1h-3q-34 0 -77 -20q-45 -22 -94 -61.5t-82.5 -70.5t-73.5 -70q-4 -4 -6.5 -7t-5.5 -5 q-107 -113 -266 -286t-341 -388t-206 -276q-2 -8 -12 -36t-15.5 -51t-5.5 -44q0 -70 29 -117t90 -47q45 2 81.5 12t57.5 20t27 11q32 1 29 -18q-3 -22 -36 -42l-10 -5q-110 -56 -176 -56q-58 0 -93.5 45.5t-49.5 112.5q-5 66 -29 66q-7 -1 -37 -36.5t-37 -47.5 q-23 -32 -161 -209q-7 -7 -37 -43q-239 -298 -338 -420q-56 -64 -82 -98q-19 -22 -41 -51q-40 -50 -47 -60q-5 -5 -13 -15t-12 -14q-8 -8 -20 -24q-2 -2 -6 -5t-6 -5q-107 -132 -183 -201q-5 -4 -32 -31q-134 -129 -184 -129h-1q-6 0 -18.5 5t-12.5 10z" />
<glyph unicode="g" horiz-adv-x="696" d="M-1090 -1304q32 44 95 110.5t88.5 92t85.5 83.5q38 34 45 43q5 5 16.5 15.5t16.5 15.5q90 95 122 121q67 70 125 116q40 35 158 140t195 168q19 15 53.5 48.5t54.5 49.5q21 19 35 33t32 34t29 31q16 16 21 25q108 120 137 158q2 2 5 6t5 6q22 21 25 34.5t-7.5 16.5t-22 4 t-19.5 -2q-12 -3 -25.5 -8.5t-26.5 -8.5t-34 -3q-22 0 -39 13.5t-17 33.5q0 40 44.5 90.5t127.5 123.5q7 6 11 9q108 96 186 154.5t119 62.5q8 1 15 1q28 0 50 -10q28 -12 39 -32.5t15 -35t4 -25.5q0 -9 -2.5 -16.5t-8.5 -14t-11.5 -12t-16 -11t-17 -8.5t-19.5 -7.5t-18 -6 t-19.5 -5.5t-16.5 -5q-43 -13 -60 -13q-12 0 -12 6q0 11 14 25q9 9 37 23q37 20 41 47q-3 6 -10 7.5t-18 0.5l-11 -2q-33 0 -65.5 -19t-55 -43t-53 -56.5t-51.5 -49.5q-104 -83 -104 -100q0 -29 44 -29q11 0 25 2q10 1 17.5 3t17 6.5t15 7.5t20.5 12t24 14q30 17 35 22 q3 3 23 13l18 4q2 0 7 -0.5t6.5 -0.5t5.5 -1t5 -1.5t3.5 -2t3.5 -3.5t1.5 -4.5t0.5 -5.5q0 -34 -14 -51q-2 -2 -5 2.5t-6 1.5l-14 -24q-7 5 -18 -17l-6 -16q-6 -9 -5 -14.5t4 -8t7 -2.5q10 1 45 13l15 6q15 6 42.5 17.5t56.5 25.5q20 9 64.5 30.5t71.5 33.5t43 16 q24 0 24 -12q0 -9 -12 -23q-4 -5 -23.5 -17.5t-67.5 -37t-112 -52.5q-8 -3 -23 -9.5t-43 -18t-69 -27.5q-120 -48 -139 -57q-11 -7 -27 -21.5t-30 -28.5t-34 -35t-31.5 -33.5t-29.5 -33t-22 -24.5q-46 -55 -97 -117l-39 -49q-7 -5 -18 -21q-2 -2 -7.5 -8t-10 -11t-7.5 -7 q-6 -3 -6 -7q-8 -9 -70.5 -81t-76.5 -87.5t-69.5 -78.5t-78 -87t-71 -77t-80 -84.5l-73.5 -73.5t-81 -78q-189 -174 -219 -200q-15 -12 -27 -21q-60 -54 -63 -57q-1 -1 -8 -7t-9 -7.5t-8.5 -7t-9.5 -7t-9 -6t-9.5 -6t-9.5 -4.5t-10.5 -4t-10 -1.5t-10.5 -0.5q-20 3 -33 19 q-12 15 -12 35q0 25 32 69zM-981 -1270q1 -3 2.5 -4t4.5 -1t5 -1h2q18 0 152 122q140 127 280 267q48 48 102.5 105.5t88.5 94t77 83.5t48 53l-8 6q-81 -57 -260 -222t-267 -257q-12 -13 -72 -75t-105.5 -111.5t-49.5 -59.5z" />
<glyph unicode="h" horiz-adv-x="1062" d="M-82 107q-8 6 -8 14q0 9 13 20q1 1 3 2q36 19 190.5 99.5t289 152t262.5 142.5q18 10 39 35.5t34 35.5q52 56 145 125q87 64 133 64h7q19 -1 23 -7q6 -10 6 -32q1 -31 -45 -68q-48 -40 -273 -198q-19 -14 -123.5 -118t-154.5 -147q-4 -3 -20 -17t-23.5 -21.5t-15 -19.5 t-7.5 -22q-3 -12 15 -8q15 3 34 13q49 18 95 34q39 14 77 27.5t55.5 20t32.5 11.5t25 7t18 2q31 0 33 -25q1 -6 -24 -22.5t-49.5 -42t-22.5 -51.5q0 -3 -1 -10t-1 -11.5t4 -7.5q21 -18 56 -18h10q49 0 145.5 36t153.5 70l12 6q34 17 45 17q9 0 19 -4.5t10 -8.5q0 -7 -7 -14 q-31 -27 -68 -46.5t-118 -55.5q-126 -58 -248 -58q-13 0 -45 13q-54 21 -57 59q-3 22 26 61q0 5 -3.5 8.5t-6.5 2.5q-47 -20 -198 -82q-166 -72 -193 -72q-9 0 -15 3t-9.5 10.5t-5 11.5t-3.5 15.5t-2 12.5q-1 5 2 10.5t8 11.5t7 9q4 5 19.5 14t17.5 10q4 3 37 29.5t44 38.5 q19 20 56.5 52t48.5 42q7 7 37.5 33t54.5 48.5t27 31.5q8 8 2 16q-147 -66 -228 -110q-52 -30 -183 -95.5t-169 -85.5q-27 -13 -45 1z" />
<glyph unicode="i" horiz-adv-x="643" d="M-88 117q0 5 4.5 10.5t9 9t11.5 8t8 5.5q26 18 112 65.5t133 71.5q56 30 133 57t119 27q34 0 61 -14t27 -44q0 -21 -14 -45v-2q-23 -35 -113.5 -142.5t-117.5 -129.5q-16 -12 -31 -12q-31 5 -31 20q0 14 27 45l29 34q1 2 2 3q8 12 18 22q9 9 12 15q88 96 88 135 q0 35 -53 35q-36 0 -101 -30.5t-152.5 -80t-121.5 -65.5q-30 -15 -45 -15q-14 0 -14 17zM637 526q0 27 37 66t63 39q13 0 29 -6t16 -15q0 -2 -5 -8.5t-9 -7.5q-3 -1 -10 -4t-10 -4q-39 -22 -39 -43q0 -15 12 -31q0 -1 2 -4t2 -4q8 -20 8 -25q0 -16 -55 -16q-41 0 -41 63z " />
<glyph unicode="j" horiz-adv-x="571" d="M-961 -1288l1 3q2 3 2 7q15 15 47 35q8 4 27 22t50 50.5t41 42.5q4 5 10 10.5t10.5 9t4.5 2.5q38 45 92 96q115 115 168 174q373 428 565 691l7 11q9 12 18 21q24 32 80 107t96 131t74 108q22 37 33 50q1 7 -11 2q-8 -2 -33 -15l-32 -16l-352 -162q-7 -3 -16 2.5 t-11 11.5q0 20 22 33q5 4 13 8.5t27 15t44 23.5t75.5 40.5t109.5 60.5q3 2 8 5t8 5q35 20 131 63q152 69 225 93q6 3 17 3q5 0 12 -1q19 -2 19 -9q0 -3 -3.5 -7.5t-8.5 -10.5t-7 -10l-41 -37q-35 -30 -82 -84q-5 -12 -17 -29.5t-41 -54.5t-40 -51q-3 -4 -9.5 -11.5 t-9.5 -11.5q-3 -3 -9 -11t-11 -14t-8 -10q-15 -18 -31 -34q-7 -8 -16 -27q-33 -43 -94.5 -123.5t-99.5 -130.5t-92.5 -118.5t-102.5 -125.5q-52 -62 -194.5 -234.5t-205.5 -246.5q-7 -9 -27.5 -28.5t-27.5 -28.5q-23 -23 -41 -47q-9 -8 -21 -24t-16 -21q-9 -12 -30 -36 t-31 -36q-17 -19 -53.5 -58t-53.5 -59q-55 -59 -105 -59h-3q-7 0 -20 2.5t-26 8.5q-12 6 -12 12t8 22z" />
<glyph unicode="k" horiz-adv-x="829" d="M10 -25q0 19 21 48q2 2 5 7t5 7q6 8 27 29l9 9l10.5 10.5t10.5 10t4 2.5q20 25 33 35l25 25q8 8 16 18q55 63 74 78q43 37 72 74q26 26 22 24l66 66q2 2 6 7t6 7l31 31q4 5 14 16.5t14 16.5q6 7 41 47l10 10q15 11 23 22q19 19 25 27q2 3 7 8t7 8q54 62 70 78 q26 23 75 23q21 0 21 -10q0 -53 -286 -346l-6 -6l-5.5 -5.5l-5.5 -5.5q0 -16 10 -16q21 0 219 97l16 8t15.5 7.5t17.5 8.5q7 3 15 10l45 20q22 11 24 11q16 0 25.5 -13t9.5 -30q0 -20 -57 -39l-2 -2q-24 -10 -232 -107q-28 -10 -65.5 -28.5t-40.5 -30.5v-19q0 -18 2.5 -41 t8.5 -50.5t19 -45.5t31 -18h21q109 25 282 110q33 16 68 31q6 0 12 6q11 5 21.5 0.5t9.5 -14.5q-14 -22 -25 -31t-51 -29h2q-5 -3 -17.5 -8.5t-19.5 -9.5h2q-3 -2 -5 -2t-5 -2q-82 -44 -117 -62t-105.5 -41.5t-125.5 -23.5q-44 0 -66 110q-6 16 -10 52q-2 4 -2 18q0 2 -1 7 t-1 9q-4 41 -10 54v-2l-10 8q-24 -3 -66 -49q-5 -5 -8 -11q-79 -86 -86 -94q-125 -147 -168 -147q-27 0 -27 28z" />
<glyph unicode="l" horiz-adv-x="714" d="M-88 117q0 5 10 15.5t15 12.5q18 9 107 62.5t124 77.5q27 18 97 65t111 75t100.5 72.5t107.5 86.5q108 101 250 237q163 156 238 156h5q19 0 23 -21l-2 -16q-1 -17 -40.5 -58t-94.5 -85q-52 -42 -125 -97q-151 -119 -244 -200q-9 -7 -49 -47q-35 -35 -41 -39 q-2 -2 -26.5 -28t-35.5 -38.5t-34.5 -39.5t-36.5 -46t-28.5 -43.5t-22.5 -46t-7 -39.5q0 -39 14.5 -58.5t51.5 -19.5q25 0 53 5.5t50 12t58 22t54.5 24t62 30t60.5 29.5q-2 0 18 10q49 27 62 27q8 0 10 -2t2 -8q0 -18 -24 -36.5t-91 -53.5q-11 -5 -65 -34t-77 -39.5 t-67.5 -29t-81 -25.5t-73.5 -7q-58 0 -84.5 20t-26.5 74q0 65 62 168v-2l16 24q8 11 21 26t22 29q23 23 -4 17q-44 -24 -113.5 -71t-97.5 -64q-141 -86 -160 -92q-27 -11 -33 -11t-13 7t-7 12z" />
<glyph unicode="m" horiz-adv-x="1132" d="M-41 -16q0 16 37 45q16 12 20 16q9 8 31 25t29 22q4 3 14 11.5t14 11.5q10 7 30 22.5t30 22.5q50 35 133 98q131 100 131 164q0 13 -15 25t-30 12q-36 0 -102 -25q-2 -1 -27 -16q-30 -17 -37 -17q-24 0 -31 11q6 20 37 39q120 71 197 71q106 0 106 -71q-2 -10 -12 -41 q-4 -12 -4 -33h14q39 0 74 14q16 6 47 6q82 0 82 -41q0 -16 -10.5 -36.5t-20 -32t-28.5 -33.5q-2 -2 -4.5 -5l-7.5 -9t-11 -13q-31 -35 -31 -45q0 -8 17 0q7 3 137 78q115 68 162 68q9 0 18.5 -4.5t9.5 -12.5q0 -31 -32 -63q-50 -50 -72.5 -83.5t-22.5 -68.5q0 -11 15 -18.5 t26 -7.5q66 0 207 77q53 29 88 29q9 0 9 -12q0 -13 -68 -52.5t-139 -72.5q-117 -53 -174 -53q-45 0 -45 61q0 22 14 57q16 46 16 56q0 24 -24 24q-5 0 -12 -2t-16.5 -6.5t-18.5 -9.5t-23.5 -14t-27 -17.5t-33 -23t-37.5 -26t-44.5 -31t-49.5 -34.5q-48 -30 -58 -30 q-26 0 -26 26q0 34 92 138q45 49 59 69q35 49 35 72q0 15 -6.5 22t-13 8t-21.5 1q-26 0 -64 -19t-64.5 -38.5t-66.5 -51.5q-16 -12 -20 -16l-25 -19q-8 -6 -25.5 -18.5t-25.5 -18.5q-100 -71 -102 -73q-46 -35 -115 -82q-33 -25 -51 -25q-8 0 -22.5 6t-14.5 13z" />
<glyph unicode="n" horiz-adv-x="978" d="M-76 115v3q0 5 4 13q6 10 15 14q59 35 147 82q14 7 49.5 26t52 28t45.5 25.5t55 33.5t54 37q2 1 11.5 8.5t17 12.5l18 12t19 10.5t14.5 3.5q12 0 21 -1.5t16.5 -8t3.5 -17.5q-17 -52 -49 -73q-84 -53 -84 -80v-4l6 -2q9 0 71 37t144 74.5t139 37.5h9.5h11t10.5 -0.5 t10.5 -1t9 -2t8 -4l5.5 -5.5t4.5 -7.5t1.5 -10.5q0 -43 -4 -59l-15 -51q-14 -40 -22 -115q5 -26 15.5 -36t37.5 -5q48 12 92 31q24 11 65 32t68.5 35.5t30.5 14.5q7 0 12 -8.5t5 -14.5q0 -16 -92 -67t-132 -68q-73 -34 -117 -34q-54 0 -65 52q-7 29 -4.5 58t23.5 104 q9 36 14 68q0 14 -33 14q-54 -1 -144 -56.5t-173 -123.5q-104 -83 -149 -83h-1q-20 1 -20 22q0 28 34 90q4 8 46 59q18 22 11 23q-3 0 -7 -2q-53 -22 -224 -105q-59 -30 -71 -33q-5 -2 -12.5 4t-8.5 13z" />
<glyph unicode="o" horiz-adv-x="559" d="M-10 16q0 22 28 64q79 119 201 219q15 10 19 14q150 124 219 124q11 0 20 -3q45 -13 45 -90l-2 -6q0 -4 1 -8l1 -4q-6 -18 -6 -23v-39q-6 -6 -6 -14q-4 -8 -4 -12l-10 -13q-17 -41 -43.5 -74.5t-50 -53.5t-64.5 -40t-63 -28.5t-70 -24.5q-32 -10 -74 -27q-39 -16 -70 -16 q-10 0 -20 2q-25 2 -40 16q-12 11 -12 28q0 4 1 9zM102 88q-1 -7 -1 -12q0 -31 32 -33h8q67 1 165 65q104 68 122 125h-12q-6 0 -19 9l-8 2q-7 4 -7.5 11t2 16.5t1.5 15.5q0 3 -2.5 7.5t-3.5 4.5l-8 4q-6 0 -6 2q-1 4 -5 6q-2 1 -3.5 1t-2.5 -1q-78 -34 -160.5 -106.5 t-91.5 -116.5z" />
<glyph unicode="p" horiz-adv-x="696" d="M-954 -1122q0 29 36 71q16 22 41 50q1 2 27 28h-2q18 25 51.5 63.5t89.5 101.5l72 81q120 130 256 287q147 157 256 266q65 62 193 197q96 101 229 276q-2 2 -2 6q-8 -8 -10 -8q-2 -1 -5.5 -3t-5.5 -3q-4 -3 -13 -6t-13 -6q-9 -6 -117 -76q-3 -2 -11.5 -6.5t-11.5 -6.5 l-17.5 -10.5t-18.5 -11.5q-78 -49 -103 -59l-13.5 1.5t-11.5 3t-10 5.5t-3 9.5t5 14.5l62 37l233 154l162 108q18 12 33 27q4 3 7 7t7 7q13 15 28.5 32.5t34.5 38.5t31 34h-2q20 23 44 50t60.5 66t66.5 64q29 23 41 23h1q16 -2 23 -14q2 -5 2 -11q0 -10 -6 -23 q-26 -42 -98 -114l-60 -60q-10 -11 -32 -34t-33 -35h2q-34 -41 -102.5 -121t-102.5 -121h2q4 3 14 6q15 6 17 8q10 7 16 11l31 20v-2q18 17 20 16v-2q2 2 11.5 9.5t11.5 9.5q4 3 26 20.5t39.5 29t42.5 24.5q21 12 49 10q0 -2 2 -2q23 -4 36.5 -15t16.5 -26t1.5 -29t-6.5 -27 q-11 -26 -46.5 -83.5t-54.5 -77.5l-3 -5q-3 -5 -5 -6q-6 -4 -14 -12l-60 -57q-70 -59 -114 -68q-15 -1 -29 14.5t-8 24.5q10 19 24 25v-2q1 1 7.5 6t7.5 6q5 4 21 15.5t26 17.5q28 20 73 70.5t54 72.5q7 5 18.5 25t11.5 32q0 5 -5 8.5t-11 2.5l-9 -3q-8 -3 -20 -10t-30 -20 v2q-8 -8 -11 -8v2q-1 -1 -6 -5t-6 -5l-41 -31q-8 -5 -36 -25.5t-40 -27.5q-21 -14 -63 -50q-6 -4 -12 -10l-11 -10q-194 -180 -231 -227q-13 -17 -74 -82h2q-8 -10 -71 -78h2q-35 -40 -129 -154q-54 -70 -239 -277.5t-259 -287.5l-43 -43q-19 -19 -43 -47q-15 -15 -29.5 -29 t-23.5 -22.5t-10 -9.5q-15 -10 -36 -10q-7 0 -14 1q-30 4 -30 17z" />
<glyph unicode="q" horiz-adv-x="796" d="M-686 -1061q0 37 74 111l12 14q22 19 22 25q35 36 179 183t235.5 244.5t173.5 194.5q16 17 46.5 54t43.5 51q35 37 86 99t56 81q10 11 -12 20q-17 8 -31 2q-44 -8 -82 -8q-62 0 -62 80q0 58 60 127.5t129 116.5t121 67q50 17 129 17q41 0 71 -12q4 -2 14.5 -8.5t20 -11 t14.5 -5.5q44 0 50 8l8 6q11 8 15.5 9.5t5.5 -1t5 -7t11 -7.5q0 -19 -33 -61l-6 -6q-273 -286 -385 -398q-3 -3 -12 -11.5t-13 -12.5q-39 -42 -15 -38q4 1 11 3q1 1 5.5 3.5t6.5 4.5q170 121 360 225.5t238 106.5q13 0 13 -10q0 -11 -13 -21l-61 -43q-17 -10 -76.5 -48 t-95.5 -58q-144 -77 -237 -136.5t-197 -144.5q-7 -6 -36 -30t-39 -32t-36 -30t-39 -33.5t-36.5 -32t-39.5 -35t-37 -34t-39.5 -38.5t-37.5 -38q-44 -51 -148.5 -157.5t-136.5 -141.5l-6 -6v2l-8 -15l-15 -16q-25 -22 -47 -55q-14 -23 -37 -41l-49 -51q-2 -1 -10 -8.5 t-10.5 -9.5t-9.5 -8t-11 -8t-9.5 -5.5t-10 -4.5t-8.5 -1h-5q-21 0 -24 24zM178 135q0 -43 60 -43q40 0 133 53q23 18 106 93q15 13 76 81q6 6 6 15q0 13 -27.5 23t-46.5 10q-57 0 -130 -38.5t-125 -94t-52 -99.5z" />
<glyph unicode="r" horiz-adv-x="720" d="M-88 104q0 8 2 15t4.5 11t9 9.5t9 7t11.5 7t11 6.5q1 1 3 2t3 2q142 91 232 162q8 8 10 12q8 12 10 14l16 10l11 7q6 0 6 4q4 6 10 12q8 8 14 12q11 5 19 9q2 2 9 7t9 7q0 -3 29 33q8 8 12 14q33 37 56 37q19 0 37 -26.5t18 -49.5q0 -12 -8.5 -21t-20.5 -12q-2 -2 -14 -6 q-47 -15 -47 -51q0 -22 26 -82l9 -14q1 -1 4 -6.5t6 -12.5q6 -18 6 -30q0 -14 -33 -82q-1 -1 -1 -3.5t-1 -3.5q-4 -4 -4 -6l-10 -16l-6 -8q0 -2 -11 -13l4 -2l-4 -16q6 -6 13 -6q12 0 18 2q8 4 17 4q26 0 223 88q41 17 114 62q36 23 52 8q4 -4 4.5 -10.5t-4.5 -14.5v-2 q-24 -39 -212 -125t-231 -90q-36 -18 -57 -18q-24 0 -41.5 22t-17.5 45q0 41 38 84v-2q3 13 23 21l4 4q16 14 35.5 46.5t19.5 45.5q0 20 -24 37l-19 16l-4 27q-4 24 -20 24q-12 0 -82 -53q-117 -84 -207 -133q-64 -33 -72 -33q-16 0 -16 12z" />
<glyph unicode="s" horiz-adv-x="671" d="M-106 106q0 10 16 21.5t51 32.5l14 6q11 6 32.5 19.5t25.5 15.5q3 3 13 8t13 8l76 43q110 66 201 109q58 28 134.5 51.5t127.5 23.5q47 0 47 -47q0 -76 -108 -204l-21 -25q-3 -4 -9 -11.5t-9 -11.5q-46 -57 -66.5 -80.5t-53.5 -57t-58 -46t-50 -12.5q-16 0 -20 17.5 t-4 56.5v51q0 55 37 55q8 -2 16 -25q10 -20 29 -20q14 1 35 20t32 39q9 9 13 17l24 24q96 104 113 139q6 13 6 21q0 16 -33 16q-55 -1 -138.5 -34.5t-135.5 -62t-127 -73.5q-10 -5 -11 -6q-2 -1 -5 -3t-14 -8.5t-26 -14.5q-6 -3 -18 -10.5t-18 -10.5q-100 -53 -117 -53 q-14 0 -14 22z" />
<glyph unicode="t" horiz-adv-x="630" d="M74 100q10 15 12 17q40 55 105 157.5t104 159.5q-21 5 -42 23.5t-20 31.5q2 33 134 33h10q8 10 23.5 29t23.5 29q8 12 24.5 33.5t24.5 33.5q2 3 94 121q77 88 115 90q12 0 12 -14q-3 -34 -51 -88q-1 -1 -3.5 -5t-4.5 -6q-20 -24 -88.5 -118t-83.5 -113q30 -3 54 -3.5 t52 0.5t41 1h279l33 -6q3 0 3 -4l-1 -1q0 -5 -2 -7q-3 -3 -29 -9q-109 -20 -234 -32q-48 -5 -138 -10.5t-126 -8.5h2q-5 -8 -66 -88.5t-110 -153t-61 -108.5q0 -21 17 -33t40 -10q85 4 206 47t200 90q4 2 10 2t13.5 -1t8.5 -1q5 0 9 -4q-1 -12 -10 -23t-18.5 -18t-27.5 -18 q-109 -65 -273 -117.5t-267 -52.5h-9q-22 0 -32 4q-15 8 -15 24q0 37 62 127z" />
<glyph unicode="u" horiz-adv-x="978" d="M-121 100q0 9 10 17.5t23 13.5l12 6q43 25 110 61.5t104 57.5t92.5 56.5t109.5 76.5q25 10 31 10q10 0 22.5 -10t12.5 -20q0 -34 -37 -76q-14 -17 -43 -43.5t-42.5 -45.5t-13.5 -42q0 -24 14 -42t35 -18q27 0 62 13l18 6q66 25 113.5 56t103.5 85l13 12q20 23 57 23 q6 0 13.5 -6t7.5 -12q0 -1 3.5 -9t5 -15t-0.5 -15q-8 -8 -23 -33l-6 -12q-5 -10 -12 -21.5t-9 -16t-4 -15t-2 -27.5t11 -32t30 -15q34 0 70.5 10.5t51.5 18.5t50 26q93 45 115 45q12 0 12 -16q0 -4 -3.5 -9t-11 -10.5t-14 -10t-19.5 -12t-20.5 -11.5t-23 -12.5t-22.5 -12.5 q-74 -42 -130 -63t-112 -21q-30 0 -51 16t-21 43q0 42 19 101q3 9 0 18q-1 0 -2.5 -1t-3.5 -2.5t-4 -2.5q-48 -37 -119 -76t-129 -59q-30 -15 -60 -15q-94 0 -94 70q0 6 -0.5 25.5t0 26t3 21t9 27t17.5 27.5q3 3 6.5 10.5t-2.5 9.5q-6 0 -10 -2q-2 -1 -127 -67 q-153 -80 -172 -80q-23 0 -23 20z" />
<glyph unicode="v" horiz-adv-x="1026" d="M-63 117q-3 8 -3 13q0 9 7 13q18 13 186 109q10 5 94 55q10 6 28.5 18t29.5 18.5t25 12t24 4.5q21 0 36 -3t27 -14t13 -29.5t-12.5 -52t-43.5 -79.5q-47 -75 -47 -104q0 -10 6 -15q10 -5 27.5 -3t27.5 6q112 47 224 112q13 8 35.5 23t27.5 18q7 4 15 11.5t10 9.5 q10 10 14 18q2 3 7.5 13.5t9.5 17.5q23 48 38.5 62t51.5 14q33 0 39 -31v-39q-6 -40 -7 -53q-4 -32 -4 -55q0 -34 8 -50q0 -1 5 -6q4 -8 21 -7q21 0 63 11q11 2 88 37q37 19 51 21q35 4 35 -6q-2 -12 -56 -52q-41 -30 -104 -55.5t-100 -32.5q-14 -2 -26 -2q-50 0 -56 41 q-2 14 -2 45q0 23 -7 37q-4 6 -15 6q-28 0 -101 -41q-74 -43 -182 -93.5t-154 -57.5q-29 -4 -49 -4q-2 0 -5 -1q-17 0 -26 4q-10 4 -16 8t-6 13.5t1.5 14.5t4.5 16q39 107 81 174q24 41 24 61q0 4 -1 8t-11 2.5t-24 -7.5t-22 -13q-8 -6 -236 -129q-17 -9 -27.5 -14.5 t-20 -7.5t-14.5 0.5t-7 9.5z" />
<glyph unicode="w" horiz-adv-x="841" d="M55 8q0 5 4 12t12.5 19t14.5 22v-2q1 2 5 8.5t5 8.5q-5 -5 3 5q2 4 9 13q2 3 3 4v-2q1 2 5 9.5t5 9.5q7 8 15 19l7 11q26 33 41 56q133 186 133 207q0 8 -7 17t-15 9q-25 0 -53 -22q0 -1 -4 -3.5t-7 -5.5q-17 -14 -36 -14l-17 2q0 25 8 33q39 33 125.5 79t128.5 46 q27 0 27 -17q0 -6 -64 -110q-10 -15 -24 -43l-21 -31q-18 -27 -24 -37q-59 -85 -68 -102q3 -2 8.5 -7t8.5 -7q124 92 151 92q24 0 36.5 -21.5t12.5 -48.5q0 -37 -14 -98q-2 -4 -2 -15q0 -2 -1 -6t-1 -6q-4 -12 -4 -24q-4 -20 -4 -45q2 0 5 -1.5t5 -1.5q15 15 35 39 q2 2 54.5 58.5t84.5 89.5l14 14q43 40 80 80q3 3 9.5 10.5t9.5 10.5q71 71 86 81q14 7 20 7q12 0 29.5 -17t17.5 -28q0 -5 -4 -9q-1 -1 -2 -3t-2 -3l-8 -8q-8 -8 -10 -8h2q-49 -44 -106 -96.5t-124.5 -115t-105.5 -97.5q-5 -5 -19.5 -17.5t-19.5 -17.5l-19 -19 q-63 -63 -96 -92q-4 -2 -18 -2q-23 0 -23 17q0 21 8 57q0 1 1 3t1 3q0 7 3 10q10 30 12 35q1 2 2 7t2 7q29 89 29 131q0 15 -8 30.5t-21 15.5q-43 0 -168 -119q-17 -17 -20 -19l-31 -30q-48 -48 -72 -48q-10 0 -22.5 10t-12.5 21z" />
<glyph unicode="x" horiz-adv-x="757" d="M45 -10q0 35 84 92q11 10 84 55q6 3 20.5 11.5t20.5 11.5h-2q39 25 80 63q-27 39 -74 118t-47 95q0 11 20 17t35 6q33 0 58 -62q4 -12 4 -16q0 -1 1 -4t1 -6q19 -56 55 -97q58 45 124.5 107.5t86.5 103.5q10 7 20 7q14 0 39 -12.5t25 -22.5t-21 -31q-27 -26 -34 -31 q-5 -5 -15 -10h2q-4 -4 -12 -8h2q-54 -40 -108 -88q-33 -29 -70 -62q61 -94 137 -176q31 -34 80 -37q51 -6 51 -34q0 -31 -55 -31q-106 0 -166 57q-7 11 -10 19q0 2 -2 4l-13 20q-4 4 -2 8q-6 12 -16 26.5t-22.5 32.5t-18.5 27q-19 24 -27 37q-11 -10 -60.5 -54.5 t-76.5 -68.5l-24 -18q-13 -10 -30.5 -24t-29 -23.5t-23.5 -18.5t-20 -13.5t-12 -4.5q-10 0 -24.5 13t-14.5 22z" />
<glyph unicode="y" horiz-adv-x="849" d="M-326 -881q7 63 50 103q35 28 69 67l27 27q16 16 62 59.5t69 67.5l72 72q27 31 65 69q160 156 240 242q239 234 241 272q0 13 -10 13q-17 0 -88 -27q-4 -1 -11 -4t-11 -4q-8 -3 -25.5 -9.5t-20.5 -7.5q-62 -26 -133 -34q-1 0 -8.5 -0.5t-12.5 -0.5t-13 3.5t-12.5 11 t-8.5 22t-4 35.5q0 16 25 68q-1 -1 -4 -6l-4 -7l1 1q19 34 19 53q0 8 -5 14t-14 6q-31 0 -109 -37t-132 -71q-50 -29 -80 -29q-13 0 -19 10q-1 3 8 14.5t15 16.5q73 41 141 84q21 11 58.5 33t52.5 30q12 6 44 23.5t49 26t44 16.5t51 8q15 0 15 -8l2 -23q-9 -24 -11 -26v2 q-41 -91 -41 -162q0 -29 29 -29q56 0 174 54q143 65 176 65q41 0 41 -24q0 -25 -20 -49l-33 -37q-23 -28 -48 -55t-55.5 -59t-49 -51.5t-57.5 -58.5t-52 -53q-47 -44 -109 -110q-167 -181 -444 -496q-70 -81 -108 -107q-37 -26 -66 -26h-6q-15 3 -15 22z" />
<glyph unicode="z" horiz-adv-x="638" d="M59 35q0 18 9 18q21 0 251 162q93 63 130 123q-5 1 -25 6q-62 12 -84 12q-41 0 -80 -26l-22 -13q-2 -1 -5.5 -3t-5.5 -3h2q-17 -14 -34 -14q-5 0 -9 3t-4 5q0 4 4 12l25 27l86 82q9 14 22 14q1 0 11 2q8 1 15 1q1 -1 3 -1q8 0 8 -4l54 -14q8 -4 14 -6q67 -23 108 -23 q25 0 33 2l25 2q22 0 22 -20l-4 -2q-17 -8 -104 -84q-15 -15 -19 -17q-2 -1 -8 -5t-8 -5h2q-5 -4 -15.5 -12t-15.5 -12q-56 -47 -133 -97q-71 -47 -84 -57q-2 -4 -0.5 -9t5.5 -13q3 -7 3 -13q0 -19 136 -28q72 0 165 28l33 10q15 0 25 -14l-10 -10q-3 -3 -15 -12 q-33 -19 -67.5 -30.5t-57 -17.5t-70.5 -9t-66.5 -3h-86.5q-24 0 -74 10t-82 21z" />
<glyph unicode="{" horiz-adv-x="598" d="M-133 -465q0 78 170 283q79 99 129 168.5t96.5 166.5t46.5 169q0 15 -2.5 24t-5.5 13.5t-10 11.5l-21 16q2 15 16.5 36t28.5 21q10 0 15 -8q2 -10 12 -10q9 0 36.5 30t37.5 46v-2q21 41 35 98q0 12 2 18t5 20.5t5 20.5q4 8 4 11q42 152 119 276q44 68 115.5 130.5 t132.5 62.5q20 0 49.5 -11.5t29.5 -29.5q0 -8 -8.5 -15.5t-15.5 -7.5q-55 0 -82 -6q-30 -5 -69 -40t-68 -73q-71 -99 -119 -260q-1 -3 -3 -8t-3 -8q-4 -8 -4 -16q-42 -140 -86 -211q-20 -36 -66 -68q-12 -10 -14 -12l-6 -6v2q-4 -36 -4 -54q0 -37 -5 -57q-44 -194 -290 -502 q-30 -34 -41 -49q-85 -111 -92 -139q0 -2 2 0q18 6 24 6q11 0 17 -7t6 -16q0 -18 -26 -39.5t-44 -21.5q-21 0 -35 13t-14 34z" />
<glyph unicode="|" horiz-adv-x="419" d="M152 -526q0 8 2 10q4 29 4 86v59q0 9 1 23t1 18q2 23 2 78q0 110 -4 332q-2 113 -2 332q0 130 4 376v95q0 15 1 47t1 49l2 29q-4 99 -12 147q6 16 18.5 32.5t24.5 16.5q7 0 14 -22q18 -88 18 -170v-47q0 -3 -1 -9.5t-1 -9.5q0 -27 2 -37v-20q0 -3 1 -9.5t1 -9.5 q0 -4 -1 -14.5t-1 -15.5v-31q-2 -18 -2 -59q0 -25 2 -35q0 -3 1 -9.5t1 -9.5v-14q0 -11 -6 -20v2q-2 -4 -2 -17q0 -25 2 -33q6 -68 6 -143q0 -27 4 -39q5 -30 5 -39t-1 -34.5t-1 -41.5v-69q0 -8 -1.5 -24.5t-1.5 -24.5q-4 -66 -4 -99v-143q0 -80 4 -119q5 -31 5 -80v-16 q0 -183 -21 -252q0 -1 -1 -5t-1 -5q-5 -53 -25 -53q-14 0 -26 17t-12 30z" />
<glyph unicode="}" horiz-adv-x="663" d="M-201 -618q7 12 66 38q25 11 43 25q38 31 77.5 92t61 105t55.5 120q14 28 17 37q10 20 10 27q44 93 120 207t136 149v11q-2 39 19.5 97t67.5 135.5t82 132t97 142.5q105 149 135 203q11 18 27 55.5t16 49.5q0 6 -6 18l-12 12q-25 29 -25 41q0 9 12.5 19t20.5 12 q12 -6 25 -6q14 0 18 -2q19 -6 34.5 -27.5t14.5 -40.5v-6q-4 -40 -43 -121q-54 -104 -180 -272q-120 -155 -178 -264q-56 -105 -64 -158q6 2 17 2q30 0 59 -11.5t29 -37.5q0 -33 -38 -66.5t-73 -33.5q-37 0 -57 51q-51 -36 -92 -129q-4 -4 -4 -6q-55 -107 -58 -113 q-2 -5 -28 -57q-178 -361 -258 -418q-50 -37 -119 -37q-21 0 -25 25zM442 150q0 -19 19 -19q24 0 24 27q0 8 -10 8q-6 0 -31 -10q0 -1 -1 -3t-1 -3z" />
<glyph unicode="&#xa8;" horiz-adv-x="868" d="M246 801q0 19 35.5 54.5t54.5 35.5q17 0 44.5 -16.5t27.5 -32.5q0 -8 -4.5 -19t-8 -18t-12.5 -21t-10 -16q-1 -1 -2 -3t-2 -3v2q-11 -19 -37 -19q-13 0 -28 7t-21 18l-18 10h1q-2 1 -6.5 4t-7 5t-4.5 5t-2 7zM561 774q0 28 31.5 68.5t58.5 40.5q17 0 44.5 -17.5 t27.5 -34.5q0 -28 -33 -66t-59 -38q-19 0 -51 23q-8 0 -13.5 8t-5.5 16z" />
<glyph unicode="&#xad;" horiz-adv-x="866" d="M102 260q0 7 12.5 14t22.5 9q37 10 115 10q8 0 23.5 1t23.5 1q14 2 51 2q7 0 22 -1t23 -1h47q33 0 99 4q12 1 33 2.5t38 2.5t33 1q21 0 31 -2q20 -4 35 -4q10 0 31.5 -12.5t21.5 -20.5q0 -11 -23 -26t-36 -15q-5 0 -35 6q-25 5 -31 5q-13 0 -37 -1.5t-37 -1.5h-102 q-111 0 -160 -6q-25 -4 -80 -4q-40 0 -65 -2q-6 0 -31 18t-25 21z" />
<glyph unicode="&#xb4;" horiz-adv-x="659" d="M324 659q14 18 30 31q1 1 3.5 3t10 7.5t15.5 12.5q8 6 20 19t19 18q6 10 25.5 25.5t58 52t84.5 90.5q6 6 16.5 18.5t17 19t19 13.5t29.5 10l20 -10l13 -17l4 -20q-5 -12 -23 -49q-3 -3 -8 -13q-13 -9 -26.5 -20.5t-30.5 -26.5t-25 -22q-23 -23 -49 -41.5t-59.5 -38.5 t-49.5 -31l-18 -10q-7 -9 -21 -16q-5 -3 -13 -8.5t-13 -8.5q-12 -6 -27 -3t-22 15z" />
<glyph unicode="&#xb6;" horiz-adv-x="854" d="M-293 -643q0 21 15.5 46.5t28 39t40.5 41.5q39 39 47 55q3 3 14.5 15.5t20.5 21.5q403 430 521 576q73 91 73 112q-2 2 -4 8q-19 0 -39 -8q-21 -6 -39 -6q-23 0 -31 2q-4 0 -15 1t-15 1q-42 0 -63 30t-21 73q0 56 67 143t153 159.5t148 100.5q79 23 129 23q88 0 168 -56 q23 21 79.5 85t66.5 81v-2l16 33q11 23 17.5 33.5t24 21.5t44.5 12h12q37 0 37 -22q0 -15 -201 -227q-44 -51 -53 -60l-129 -147q-75 -82 -165.5 -186.5t-136.5 -158.5t-169 -201t-143 -171q-49 -57 -168.5 -200t-186.5 -220l-10 -10q-2 -3 -13 -15t-16.5 -17.5t-16 -15.5 t-17.5 -15t-15.5 -9t-15.5 -4q-12 0 -25.5 12.5t-13.5 24.5z" />
<glyph unicode="&#xb7;" horiz-adv-x="475" d="M172 403q0 35 10.5 46.5t46.5 11.5q18 0 37.5 -3t38.5 -14.5t19 -29.5q0 -16 -13 -33q8 -12 8 -27q0 -26 -34 -26q-15 0 -47 8q-4 1 -11.5 2t-11.5 2q-25 9 -34 23t-9 40z" />
<glyph unicode="&#xb8;" horiz-adv-x="1705" />
<glyph unicode="&#x2c6;" horiz-adv-x="1705" d="M539 758q12 10 26 22q9 6 23 27v-2q29 29 37 33q11 11 49 32q1 1 3.5 3t5.5 4.5t5 5.5v-2q13 9 29 16q8 4 10 4l16 10q5 2 13.5 5t9.5 4q25 12 74 26q4 4 6 4l8 4q1 0 3 1t3 1l6 2q2 1 6.5 2.5t6.5 2.5l16 8q8 4 23 14t26.5 15.5t18.5 5.5q9 -3 18 -17q7 -4 10 -14 l13 -12q-1 -2 -8.5 0.5t-8.5 1.5q-4 -15 -12 -23l2 -14q0 -2 -4 -35.5t-4 -42.5v-8v-8q0 -11 -2 -15l-4 -37l2 -4q1 -6 -7.5 -22t-11.5 -19q-4 -4 -22 0l-2 8v13l-7 24q-1 3 -1 6.5t0.5 8.5t0.5 8v6v8q0 19 -4 27q0 5 -16 47q-1 0 -5 -3t-7 -7v2l-6 -6q-5 0 -15 -5 q-1 0 -1 -1l-0.5 -0.5t-2.5 -0.5q-8 0 -12 -2q-11 0 -15 -4q-2 0 -20 -6h2q-50 -11 -76 -24h2q-13 -4 -18 -9q0 -2 -2 -3.5t-6.5 -4t-7.5 -4.5q-40 -16 -56 -24q-3 -1 -6 -4t-4 -3q3 4 -1 1q-2 -1 -9 -7l-8 -6q-2 -1 -5.5 -4t-5.5 -4q-3 -1 -16 -19v3l-6 -5l-17 -6 q-11 -5 -32 21z" />
<glyph unicode="&#x2000;" horiz-adv-x="845" />
<glyph unicode="&#x2001;" horiz-adv-x="1690" />
<glyph unicode="&#x2002;" horiz-adv-x="845" />
<glyph unicode="&#x2003;" horiz-adv-x="1690" />
<glyph unicode="&#x2004;" horiz-adv-x="563" />
<glyph unicode="&#x2005;" horiz-adv-x="422" />
<glyph unicode="&#x2006;" horiz-adv-x="281" />
<glyph unicode="&#x2007;" horiz-adv-x="281" />
<glyph unicode="&#x2008;" horiz-adv-x="211" />
<glyph unicode="&#x2009;" horiz-adv-x="338" />
<glyph unicode="&#x200a;" horiz-adv-x="93" />
<glyph unicode="&#x2010;" horiz-adv-x="569" d="M94 266q0 11 9.5 21.5t19.5 13.5q9 6 29 6q19 0 55 -1t53 -1h105q3 0 9 1t9 1h12q19 0 35 -11t16 -30q0 -9 -0.5 -14t-3 -8.5t-4.5 -5t-8 -5.5l-16 -8h2q-4 -4 -10 -4q-12 0 -15 6q-1 1 -5 3l-3 3q-18 9 -104 9q-11 0 -23 -4q-8 -2 -20 -2q-52 0 -70 2q-8 0 -12 4h2 q-8 4 -13 4q-4 0 -12 -8q-9 -9 -14 -9q-11 0 -17 13t-6 24z" />
<glyph unicode="&#x2011;" horiz-adv-x="569" d="M94 266q0 11 9.5 21.5t19.5 13.5q9 6 29 6q19 0 55 -1t53 -1h105q3 0 9 1t9 1h12q19 0 35 -11t16 -30q0 -9 -0.5 -14t-3 -8.5t-4.5 -5t-8 -5.5l-16 -8h2q-4 -4 -10 -4q-12 0 -15 6q-1 1 -5 3l-3 3q-18 9 -104 9q-11 0 -23 -4q-8 -2 -20 -2q-52 0 -70 2q-8 0 -12 4h2 q-8 4 -13 4q-4 0 -12 -8q-9 -9 -14 -9q-11 0 -17 13t-6 24z" />
<glyph unicode="&#x2012;" horiz-adv-x="569" d="M94 266q0 11 9.5 21.5t19.5 13.5q9 6 29 6q19 0 55 -1t53 -1h105q3 0 9 1t9 1h12q19 0 35 -11t16 -30q0 -9 -0.5 -14t-3 -8.5t-4.5 -5t-8 -5.5l-16 -8h2q-4 -4 -10 -4q-12 0 -15 6q-1 1 -5 3l-3 3q-18 9 -104 9q-11 0 -23 -4q-8 -2 -20 -2q-52 0 -70 2q-8 0 -12 4h2 q-8 4 -13 4q-4 0 -12 -8q-9 -9 -14 -9q-11 0 -17 13t-6 24z" />
<glyph unicode="&#x2013;" horiz-adv-x="866" d="M102 260q0 7 12.5 14t22.5 9q37 10 115 10q8 0 23.5 1t23.5 1q14 2 51 2q7 0 22 -1t23 -1h47q33 0 99 4q12 1 33 2.5t38 2.5t33 1q21 0 31 -2q20 -4 35 -4q10 0 31.5 -12.5t21.5 -20.5q0 -11 -23 -26t-36 -15q-5 0 -35 6q-25 5 -31 5q-13 0 -37 -1.5t-37 -1.5h-102 q-111 0 -160 -6q-25 -4 -80 -4q-40 0 -65 -2q-6 0 -31 18t-25 21z" />
<glyph unicode="&#x2014;" horiz-adv-x="1312" d="M100 262q0 9 35 21q33 10 101 10h14q53 0 82 2q13 0 41 1t43 1h112q28 0 88.5 -1t90.5 -1h180q34 0 100 4q12 1 33 2.5t38.5 2.5t33.5 1q14 0 24 -2q20 -4 35 -4q11 0 34 -11.5t23 -21.5q0 -11 -23 -26t-36 -15q-3 0 -33 6q-25 5 -29 5q-13 0 -37 -1.5t-36 -1.5h-74 q-270 0 -403 -2h-131q-72 0 -105 -4q-59 -6 -141 -6q-9 0 -34.5 17.5t-25.5 23.5z" />
<glyph unicode="&#x2018;" horiz-adv-x="614" d="M549 983l6 37q4 20 4 29q3 45 57 84q3 0 9.5 1t9.5 1q16 4 33 4q14 0 23 -13t9 -28t-16 -35v2q-1 -2 -6 -8t-6 -8q-7 -9 -25 -68t-18 -70q0 -12 2 -16q4 -12 4 -16q0 -23 -35 -23h-10q-18 0 -29 74q-4 12 -4 16q-8 24 -8 37z" />
<glyph unicode="&#x2019;" horiz-adv-x="436" d="M184 768q0 28 13.5 45.5t38.5 36.5q16 12 26 22q30 30 70 84q33 46 43 99q4 16 4 18q0 8 6 12q4 0 18 7q22 11 46 47l15 4l5 2q40 10 45 10q12 0 24.5 -14t12.5 -25q0 -17 -4 -37q-2 -20 -31 -57q-6 -8 -16 -23v2q-15 -23 -33 -38q-2 -2 -7.5 -7t-10 -9.5t-7.5 -8.5 q-25 -34 -71 -68q-14 -14 -29 -26q-5 -4 -19.5 -17.5t-19.5 -17.5q-48 -42 -63 -53q-20 -15 -33 -15q-11 0 -17 9t-6 18z" />
<glyph unicode="&#x201a;" horiz-adv-x="329" d="M104 6q4 6 11.5 11.5t13.5 14.5t10 29q4 16 16.5 56.5t12.5 56.5v20t0.5 15t3 11.5t8.5 10.5q24 21 39 9l39 -33q23 -66 0 -101q-6 -11 -13 -29t-15.5 -30.5t-26.5 -26.5q-14 -11 -31.5 -29.5t-26.5 -24.5t-16 -1q-38 21 -25 41z" />
<glyph unicode="&#x201c;" horiz-adv-x="346" d="M172 1016q0 38 21 69l30 43q23 47 49 70q22 19 64 43q2 1 6 4t6 4h-2q9 6 23 6q55 0 55 -22q0 -9 -14 -37l-7 -14q-13 -27 -55 -52q-10 -6 -33 -38q-8 -12 -22 -27q-17 -17 -17 -29q0 -13 15 -24q14 -14 14 -25q0 -13 -24 -26t-37 -13q-14 0 -37.5 13.5t-30.5 27.5 q-4 8 -4 27zM338 971l6 37q4 20 4 28q3 44 58 84q3 0 9 1t9 1q16 4 33 4q14 0 23 -13t9 -28q0 -14 -16 -34v2q-1 -2 -6 -8.5t-6 -8.5q-7 -9 -25 -67.5t-18 -69.5q0 -12 2 -16q4 -12 4 -17q0 -11 -7 -16t-12 -5.5t-16 -0.5h-10q-18 0 -29 74q-4 12 -4 16q-8 24 -8 37z" />
<glyph unicode="&#x201d;" horiz-adv-x="493" d="M188 952q0 10 21 41q9 21 14 23q6 11 13 20t12 13.5t14 11.5t12 10q12 9 27 21q91 79 119 79q23 0 43 -15.5t20 -39.5q0 -67 -30 -67q-11 6 -17 8q-4 4 -10 4q-22 0 -109 -68q-45 -35 -53 -63q-6 -26 -37 -29q-14 1 -26.5 18t-12.5 33zM297 768q0 28 13 45.5t38 36.5 q20 15 27 22q26 26 69 84q33 46 43 99q1 3 2 7t2 6.5t1 4.5q0 8 6 12q4 0 18 7q20 10 45 47l18 5l3 1q40 10 45 10q12 0 24.5 -14t12.5 -25q0 -12 -5 -37q-2 -22 -30 -57q-15 -20 -17 -23v2q-16 -25 -32 -38l-25 -25q-24 -32 -72 -68q-18 -18 -28 -26q-5 -4 -19.5 -17.5 t-19.5 -17.5q-42 -36 -64 -53q-20 -15 -33 -15q-11 0 -16.5 9t-5.5 18z" />
<glyph unicode="&#x201e;" horiz-adv-x="614" d="M104 6q4 6 11.5 11.5t13.5 14.5t10 29q4 16 16.5 56.5t12.5 56.5v20t0.5 15t3 11.5t8.5 10.5q24 21 39 9l39 -33q23 -66 0 -101q-6 -11 -13 -29t-15.5 -30.5t-26.5 -26.5q-14 -11 -31.5 -29.5t-26.5 -24.5t-16 -1q-38 21 -25 41zM200 -101q26 30 27 30l4 8q9 20 27.5 39 t38.5 30q13 7 12 25t10 30q6 6 10.5 11.5t5.5 10t1.5 8t-0.5 7.5v4q0 2 -13 14t-16 23q-4 13 19 24.5t39 14.5q10 2 36.5 -11.5t32.5 -27.5q7 -14 2.5 -45t-18.5 -49q-3 -3 -30.5 -46.5t-51.5 -66.5q-18 -17 -33 -27.5t-27 -16.5l-14 -7q-8 -5 -17 -5t-40 3q-21 2 -5 20z " />
<glyph unicode="&#x2022;" horiz-adv-x="559" d="M106 336q0 21 6 40.5t10.5 27.5t18.5 30q19 28 25 39q16 32 36.5 48t53.5 16q27 0 84 -17q1 0 4 -1t4 -1q47 -11 47 -67q0 -72 -49 -148q-21 -32 -44 -45.5t-60 -13.5q-44 0 -62 4q-31 6 -52.5 31t-21.5 57z" />
<glyph unicode="&#x2026;" horiz-adv-x="1474" d="M150 49q0 35 11.5 47.5t45.5 12.5q29 0 61.5 -12t32.5 -36q0 -14 -10 -34q8 -12 8 -27q0 -25 -35 -25q-19 0 -69 13q-45 11 -45 61zM655 37q0 19 35.5 54.5t54.5 35.5q17 0 44.5 -16.5t27.5 -32.5q0 -8 -4.5 -19t-8 -18t-12.5 -21t-10 -16q-1 -1 -2 -3t-2 -3v2 q-10 -18 -37 -18q-14 0 -28.5 6.5t-20.5 17.5l-17 10h1q-1 1 -8 5.5t-10 7.5t-3 8zM1159 10q0 28 31.5 68.5t58.5 40.5q18 0 45 -17t27 -34q0 -28 -33 -66.5t-59 -38.5q-19 0 -51 23q-8 0 -13.5 8t-5.5 16z" />
<glyph unicode="&#x202f;" horiz-adv-x="338" />
<glyph unicode="&#x205f;" horiz-adv-x="422" />
<glyph unicode="&#x20ac;" horiz-adv-x="899" d="M152 -90q0 87 67 186q62 97 178 203q-28 7 -43 11.5t-44.5 15.5t-42.5 25.5t-9 31.5q3 16 16 27t31 8q20 -6 62 -27q13 -9 102 -29q9 7 28 23.5t29 24.5q-143 29 -164 34q-33 8 -26 39q6 36 65 21l13 -4q3 -1 29 -7t69.5 -15.5t83.5 -18.5q231 158 461 250l8 2q6 0 14 8 q138 65 228 63q34 0 52.5 -34t18.5 -72q0 -28 -25.5 -74t-52.5 -78q-32 -39 -51 -39q-12 0 -15 8.5t-3 26.5q0 9 8 17q1 1 6 7t6 7h-2q21 30 30.5 44t20.5 39t11 44q0 23 -10.5 30t-36.5 9q-41 3 -205 -70.5t-223 -111.5q-81 -46 -152 -99q238 -56 244 -74v3v-13 q-2 -7 -6.5 -9.5t-15 -2.5h-13.5q-23 0 -47 6l-31 6l-37.5 7.5t-74.5 15t-82 16.5q-21 -15 -62 -51q146 -34 166 -37q38 -9 148.5 -22t134.5 -9h-2h12q12 -3 8 -14q-4 -17 -60.5 -20t-144.5 5t-166.5 18t-156.5 22q-90 -94 -171 -205t-81 -174q0 -42 25.5 -75.5t66.5 -33.5 q23 0 55 4q1 0 6 1t9 1l3 1q3 1 7 1q2 2 10 2q1 0 3.5 1t4.5 1h13q5 0 12 -1.5t15.5 -8t8.5 -16.5q0 -15 -61 -25t-88 -10q-73 0 -128.5 46t-55.5 118z" />
<glyph unicode="&#xe000;" horiz-adv-x="491" d="M0 0v492h492v-492h-492z" />
</font>
</defs>
</svg>
